<svg xmlns="http://www.w3.org/2000/svg" xmlns:xlink="http://www.w3.org/1999/xlink" viewBox="0 0 150 50"><defs><style>.cls-1{fill:none;}.cls-2{fill:#e81d1d;}.cls-10,.cls-12,.cls-13,.cls-14,.cls-2,.cls-5,.cls-6,.cls-7,.cls-8,.cls-9{fill-rule:evenodd;}.cls-3{fill:url(#GradientFill_6);}.cls-4{clip-path:url(#clip-path);}.cls-5{fill:#e5e5e5;}.cls-6{fill:url(#GradientFill_2);}.cls-11,.cls-7{fill:#fff;}.cls-8{fill:url(#GradientFill_3);}.cls-9{fill:url(#GradientFill_4);}.cls-10{fill:#2d2d2d;}.cls-12{fill:#e4d2ce;}.cls-13{fill:#ed2120;}.cls-14{fill:url(#GradientFill_5);}</style><linearGradient id="GradientFill_6" x1="31.8" y1="26.09" x2="46.99" y2="19.37" gradientTransform="translate(25.9 -16.59) rotate(42.5)" gradientUnits="userSpaceOnUse"><stop offset="0" stop-color="#e41513"/><stop offset="1" stop-color="#e63612"/></linearGradient><clipPath id="clip-path"><circle class="cls-1" cx="34.28" cy="25" r="19.35" transform="translate(-7.88 29.73) rotate(-42.5)"/></clipPath><linearGradient id="GradientFill_2" x1="28.38" y1="21.02" x2="25.19" y2="19.03" gradientUnits="userSpaceOnUse"><stop offset="0" stop-color="#f7e9ea"/><stop offset="1" stop-color="#fff"/></linearGradient><linearGradient id="GradientFill_3" x1="23.77" y1="18.28" x2="24.82" y2="21.46" gradientUnits="userSpaceOnUse"><stop offset="0" stop-color="#e4d1cf"/><stop offset="1" stop-color="#fff"/></linearGradient><linearGradient id="GradientFill_4" x1="35.04" y1="34.13" x2="40.54" y2="34.22" gradientUnits="userSpaceOnUse"><stop offset="0" stop-color="#e41523"/><stop offset="1" stop-color="#af201f"/></linearGradient><linearGradient id="GradientFill_5" x1="41.94" y1="27.38" x2="38.92" y2="28.11" gradientUnits="userSpaceOnUse"><stop offset="0" stop-color="#e94a3e"/><stop offset="1" stop-color="#e62a42"/></linearGradient></defs><g id="Layer_2" data-name="Layer 2"><g id="Layer_1-2" data-name="Layer 1"><path class="cls-2" d="M112.17,18.23c5.75-.45,9.6,1.46,9.86,7.07.27,5.88-2.77,8.35-8.47,8.35h-.94l-.45,0V18.23Zm-3.68,18.83c5.07,0,10.81.27,14.37-3.05,2.11-2,3.28-6.11,2.76-10.12-1.21-9.47-10-9.27-17.13-9.11V37.06ZM77.67,18.23c5.75-.45,9.59,1.46,9.86,7.07.27,5.88-2.77,8.35-8.47,8.35h-1l-.44,0V18.23ZM74,37.06c5.06,0,10.81.27,14.37-3.05,3.76-3.52,4.77-14.54-2.59-17.9-3.44-1.58-7.71-1.42-11.79-1.33V37.06ZM67.2,28c0,4.25-.83,5.63-6.15,5.63v3.41C72.47,37.1,71,30.51,71,22.82v-8c-.91-.12-2.77-.05-3.78-.05V28Zm34.24,9,3.69,0,.08-.43V14.77h-3.76V37Zm-6.18-5a2.22,2.22,0,0,1,1.35,4.23A2.22,2.22,0,1,1,95.26,32Z"/><circle class="cls-3" cx="34.28" cy="25" r="19.35" transform="translate(-7.88 29.73) rotate(-42.5)"/><g class="cls-4"><path class="cls-5" d="M40.6,40.38c-.49-1.83-.93-3.47-1.41-5.29a20.08,20.08,0,0,0,6.38-3.63c1.81-1.82,5.11.81,2.37,4A21.33,21.33,0,0,1,40.6,40.38Z"/><path class="cls-6" d="M36.24,19.36l.57-4.7c0-1,0-2.09,0-3.14,0-.78-.39-1.63-2.13-1.24-7.24,1.72-10.9,5.92-11.47,12,.11,7.46,4.17,8.55,4.56,13.86l3.37,0Q33.67,27.74,36.24,19.36Z"/><path class="cls-7" d="M42,43a17.57,17.57,0,0,0-2.62-9.83c9-2.35,12.16-14.54,2.48-18.61C37.43,12.74,31.23,14.4,28,18.23l-4.66-2c-1.14-.46-1.51.23-1.33,1.59a5.62,5.62,0,0,0,3.1,4.79c.52.3.5.4.54,1.14,0,3.13.48,3.93,2.21,7.5a9.62,9.62,0,0,1,1.07,3.37,33.44,33.44,0,0,1-5.63-4.87c-2.58-3.08-6.12,1.3-3.72,4.34a22.88,22.88,0,0,0,8.64,6.6l-.84,3C32.37,45.33,37.32,46.18,42,43Z"/><path class="cls-8" d="M22,16.65a3.17,3.17,0,0,0,0,1.17,5.61,5.61,0,0,0,3,4.74A6.64,6.64,0,0,0,26.19,21a1.08,1.08,0,0,0-.31-1.31C24.55,18.65,23.33,17.7,22,16.65Z"/><path class="cls-9" d="M40.06,34.34a11.8,11.8,0,0,0-.7-1.18A15.93,15.93,0,0,1,32.61,33a1.73,1.73,0,0,0-1.13-.15c-1.45.59-2.54,1.15-2.57,1.74l.91.67A21.32,21.32,0,0,1,40.06,34.34Z"/><path class="cls-10" d="M31.25,18.59c1.08,0,1.85,1.09,1.73,2.43a2.47,2.47,0,0,1-2.14,2.44c-1.07,0-1.85-1.09-1.73-2.44A2.47,2.47,0,0,1,31.25,18.59Z"/><circle class="cls-11" cx="30.43" cy="20.34" r="0.47"/><path class="cls-12" d="M42.8,21.54a.51.51,0,0,1,.2.56.29.29,0,0,1-.42.22.51.51,0,0,1-.2-.56.29.29,0,0,1,.42-.22Zm2,0a.51.51,0,0,1,.2.56.29.29,0,0,1-.42.21.5.5,0,0,1-.2-.56A.29.29,0,0,1,44.76,21.55Z"/><path class="cls-13" d="M42.44,29.3c-2.92.33-4.37-1.1-4.23-4.72,3.22.67,6,.67,8.25-.37C46,27,44.65,29,42.44,29.3Z"/><path class="cls-14" d="M42.44,29.3c-2.44.27-3.85-.67-4.17-3.1,2.75,0,4.86.87,5.84,2.46A3.69,3.69,0,0,1,42.44,29.3Z"/></g><rect class="cls-1" width="150" height="50"/></g></g></svg>