<svg xmlns="http://www.w3.org/2000/svg" viewBox="0 0 150 50"><defs><style>.cls-1{fill:#e9521f;fill-rule:evenodd;}.cls-2{fill:none;}</style></defs><g id="Layer_2" data-name="Layer 2"><g id="Layer_1-2" data-name="Layer 1"><path class="cls-1" d="M67.78,30.8a11.79,11.79,0,0,0-4.7-2.49l-.51-.15a4.83,4.83,0,0,1-.5-.16l-.37-.14-.11,0-.22-.1a7.17,7.17,0,0,1-1.87-1.2,2.33,2.33,0,0,1-.84-1.72,3.24,3.24,0,0,1,.92-2.4,3.84,3.84,0,0,1,2.18-.89,7.53,7.53,0,0,1,4.92,1.19c1.28.87,2.47-1.2,1.2-2.06A9.9,9.9,0,0,0,61,19.22a5.39,5.39,0,0,0-4.73,5.58c-.08,3.57,3.75,5,6.54,5.92a8.1,8.1,0,0,1,1.62.67,6.65,6.65,0,0,1,1.83,1.26,3.24,3.24,0,0,1,.4.43c.09.11.1.12,0,0a2.9,2.9,0,0,1,.19.29,2.31,2.31,0,0,1,.4,1,.17.17,0,0,1,0,.07,2.17,2.17,0,0,1,0,.36,4.26,4.26,0,0,1,0,.63,3.16,3.16,0,0,1-.5,1.25,4.8,4.8,0,0,1-4,1.69A9.8,9.8,0,0,1,57,36.18a1.19,1.19,0,0,0-1.63.43,1.21,1.21,0,0,0,.42,1.63,11.84,11.84,0,0,0,7.44,2.6,6.79,6.79,0,0,0,5.9-3.34A5.6,5.6,0,0,0,67.78,30.8Z"/><path class="cls-1" d="M81.23,28.27a6.38,6.38,0,0,0-7.32.63l0,0V20.28a1.2,1.2,0,0,0-2.39,0V39.72a1.2,1.2,0,0,0,2.39,0V33.31h0L74,33c0-.1.08-.21.12-.32h0l.14-.3a7.49,7.49,0,0,1,.62-1,.08.08,0,0,0,0,0l.06-.06a2.85,2.85,0,0,1,.23-.26l.24-.25.25-.22a3.69,3.69,0,0,1,2.86-.69,3.86,3.86,0,0,1,1.39.44,2.29,2.29,0,0,1,.89.78c-.17-.21.13.21.17.29s.16.33.17.34a3.38,3.38,0,0,1,.18.62h0v7.41a1.19,1.19,0,0,0,2.38,0V35.63a27.44,27.44,0,0,0,0-3.74A5.25,5.25,0,0,0,81.23,28.27Z"/><path class="cls-1" d="M94.72,27.81A7,7,0,0,0,87,30.63a6.63,6.63,0,0,0,.66,8,7,7,0,0,0,8.11,1.57,6.73,6.73,0,0,0,3.87-6v-.14a6.83,6.83,0,0,0-4.91-6.27Zm-2,10.71a4.3,4.3,0,1,1,4.47-4.3A4.42,4.42,0,0,1,92.77,38.52Z"/><path class="cls-1" d="M110.73,27.81a6.9,6.9,0,0,0-6.66,1.59v-.62a1.2,1.2,0,0,0-2.39,0v18a1.2,1.2,0,0,0,2.39,0V39.1a7.15,7.15,0,0,0,7.7,1.14,6.73,6.73,0,0,0,3.86-6v-.14a6.84,6.84,0,0,0-4.9-6.27Zm-2,10.71a4.3,4.3,0,1,1,4.48-4.3A4.43,4.43,0,0,1,108.77,38.52Z"/><path class="cls-1" d="M124,27.54a5.87,5.87,0,0,0-5.31,3.07,7.86,7.86,0,0,0-.88,2.92,1.39,1.39,0,0,0,0,.3A7.22,7.22,0,0,0,119.37,39c2.2,2.64,6.89,2.47,9.61.86a1.2,1.2,0,0,0-1.21-2.06,6.53,6.53,0,0,1-3.74.79,4.56,4.56,0,0,1-1-.12l-.5-.14-.21-.08-.07,0a2.77,2.77,0,0,1-1.22-1c.12.14-.1-.15-.13-.19a3.54,3.54,0,0,1-.19-.33,1.51,1.51,0,0,1-.11-.22,2.55,2.55,0,0,1-.1-.24,4.58,4.58,0,0,1-.19-.66c0-.1,0-.21-.07-.31s0-.19,0-.26v0h8.68a1.21,1.21,0,0,0,1.19-1.19,6.9,6.9,0,0,0-.69-3.19,5.73,5.73,0,0,0-5.37-3.1Zm-3.44,4.67a1.56,1.56,0,0,0,.06-.15,6.87,6.87,0,0,1,.48-.83l0,0,.17-.2a5.49,5.49,0,0,1,.43-.4c-.07.06.27-.18.33-.21l.27-.15c-.11.06.2-.07.2-.08a4,4,0,0,1,1.31-.23,4.1,4.1,0,0,1,2.42.59l.12.08c-.06,0,.13.12.15.13a4.73,4.73,0,0,1,.37.4c0-.05.16.24.19.3a3,3,0,0,1,.21.4l.12.31c0,.13.08.27.12.4a.24.24,0,0,0,0,.09h-7.14a1.43,1.43,0,0,1,.09-.27A.88.88,0,0,1,120.57,32.21Z"/><path class="cls-1" d="M144,30.64a5.74,5.74,0,0,0-5.38-3.1,5.88,5.88,0,0,0-5.31,3.07,7.84,7.84,0,0,0-.87,2.92,1.36,1.36,0,0,0,0,.3A7.23,7.23,0,0,0,134,39c2.2,2.64,6.88,2.47,9.61.86a1.2,1.2,0,0,0-1.21-2.06,6.65,6.65,0,0,1-3.75.8,5.15,5.15,0,0,1-1-.13l-.51-.14-.2-.08-.07,0a2.71,2.71,0,0,1-1.22-1c.12.14-.1-.15-.13-.19s-.13-.22-.19-.33l-.12-.22s-.08-.2-.09-.24a6.36,6.36,0,0,1-.2-.66l-.06-.31c0-.05,0-.19-.05-.26v0h8.69a1.21,1.21,0,0,0,1.19-1.19,7,7,0,0,0-.69-3.19Zm-8.81,1.57a1.56,1.56,0,0,0,.06-.15,5.76,5.76,0,0,1,.48-.83l0,0,.16-.2.43-.4a3.63,3.63,0,0,0,.34-.21l.27-.15c-.11.06.19-.07.2-.07a3.79,3.79,0,0,1,1.31-.24,4.09,4.09,0,0,1,2.41.59l.12.08c-.06,0,.14.12.15.13a3.59,3.59,0,0,1,.38.4c-.05-.05.16.24.19.3a3,3,0,0,1,.21.4s.1.26.12.31.08.27.11.4a.29.29,0,0,1,0,.09H135l.09-.27Z"/><path class="cls-1" d="M42.21,14.14h-9c0-3.85-2.1-12-8.44-12-7,0-8.47,8.8-8.49,12.05h-9c-2.42,0-2,2.43-2,2.43L7.1,40.35S7,45.59,11.63,45.73H38c4.46-.28,4.52-5.39,4.52-5.39l1.74-23.78s.41-2.52-2-2.42ZM24.82,4.27c5.57.14,6.16,9.12,6.2,9.87H18.53c0-.75.39-9.72,6.29-9.87Zm6.89,30.58c-.37,4.71-5.61,4.9-6.46,4.86a10.47,10.47,0,0,1-6.45-2.27.69.69,0,0,1-.29-.55.67.67,0,0,1,.67-.67.61.61,0,0,1,.4.14h0a9.75,9.75,0,0,0,5.67,1.94c2.29-.07,4.76-1.2,4.95-3.54.28-3.43-4.59-4.7-5.5-5s-5.82-1.59-5.61-5.65c.1-1.67,1.63-4.62,5.64-4.71A8.48,8.48,0,0,1,30.23,21h0a.66.66,0,0,1,.23.5.67.67,0,0,1-.67.67.65.65,0,0,1-.39-.13,9.64,9.64,0,0,0-4.61-1.32c-2.77.1-4.11,2-4.18,3.56,0,2.57,3.49,3.66,4.11,3.92C28.07,29.28,32,30.55,31.71,34.85Z"/><rect class="cls-2" width="150" height="50"/></g></g></svg>