<svg xmlns="http://www.w3.org/2000/svg" viewBox="0 0 150 50"><defs><style>.cls-1{fill:#0b86c9;}.cls-1,.cls-2,.cls-3,.cls-4,.cls-5,.cls-6,.cls-7{fill-rule:evenodd;}.cls-2{fill:#fff;}.cls-3{fill:#8bc234;}.cls-4{fill:#00a941;}.cls-5{fill:#df1e82;}.cls-6{fill:#ef9400;}.cls-7{fill:#e30216;}.cls-8{fill:none;}</style></defs><g id="Layer_2" data-name="Layer 2"><g id="Layer_1-2" data-name="Layer 1"><path class="cls-1" d="M27.71,21.45l18.1-1a1,1,0,0,1,1.1,1.09,45.22,45.22,0,0,0,.34,19.07c.14.59-.49,1.09-1.09,1.09h-19a1,1,0,0,1-.86-1.29c1.44-5,1.82-10.67.48-17.89A.91.91,0,0,1,27.71,21.45Z"/><path class="cls-2" d="M32.12,24.08a.79.79,0,0,1,.79.8.79.79,0,0,1-.79.79.79.79,0,0,1-.8-.79.8.8,0,0,1,.8-.8Zm8.2,3.52a.77.77,0,1,1,1.53,0v0h0v0h0a5.3,5.3,0,1,1-10.59,0h0v0a.77.77,0,0,1,1.53,0v0h0a3.77,3.77,0,0,0,7.53,0h0v0h0v0ZM41,24.08a.8.8,0,0,1,.79.8.8.8,0,0,1-1.59,0A.8.8,0,0,1,41,24.08Z"/><path class="cls-3" d="M35.15,20.23l-.82-6.91.38-.4a.7.7,0,0,0,.06.09c.27-.13,1-.53,1.48-.81a.89.89,0,0,0,.65.28.85.85,0,0,0,.67-.32l1.72.38.47.3s.68,5.75.85,7.32l-5.42.3,0-.23Zm.65-9.35-.59-1a.64.64,0,0,1,.39-.05c.15.06.32.15.41.11s.41-.38.55-.43a.71.71,0,0,1,.18,0,2,2,0,0,1,.53.24c.1.1.15.15.26.11a4.27,4.27,0,0,1,.51-.3h.19l-.31,1.22-.39.22a.92.92,0,0,0-.63-.26.88.88,0,0,0-.66.29Z"/><path class="cls-4" d="M34.48,10.6A5.42,5.42,0,0,0,34.77,13c.27-.13,1-.53,1.48-.81a.89.89,0,0,0,.65.28.85.85,0,0,0,.67-.32l1.74.38A5.42,5.42,0,0,0,39,10.13c-.27.13-1,.54-1.49.82a.92.92,0,0,0-.63-.26.88.88,0,0,0-.66.29Z"/><path class="cls-5" d="M38.79,14.8l2.41.54.09,0h0l-.09,0-1.08,4.85L37,20.36l1.16-5.18a.5.5,0,0,1,.6-.38ZM44.27,16l2.23.5a.5.5,0,0,1,.38.6l-.61,2.72L43.18,20l.89-4Z"/><path class="cls-6" d="M41.2,15.34l.09,0c-.41-.31-1.47-1-1.22-1.59a1,1,0,0,1,1.6-.21,2.86,2.86,0,0,1,.76,1.68.78.78,0,0,1,.53,0l.26.13s1.14-1.45,1.9-1.16,1,.89.76,1.15a2.68,2.68,0,0,1-1.81.66l-.89,4-3.06.17,1.08-4.85Zm.64-.3s-.25-1-.59-1.14-.56-.11-.66.1.56.65,1.25,1Zm3.34-.22c-.1-.07-.28-.12-.57,0a6.63,6.63,0,0,0-.8.64h.4c.18,0,1-.18,1.12-.34S45.18,14.82,45.18,14.82Z"/><path class="cls-6" d="M27.13,17.71,30,17l.09,0h0L30,17l.88,3.68-3.62.2-.59-2.46a.61.61,0,0,1,.44-.73Zm6.55-1.57,2.66-.65a.62.62,0,0,1,.73.45l1,4.36-3.62.2-1-4.24Z"/><path class="cls-7" d="M30,17l.09,0c-.6-.12-2.11-.31-2.14-1.07a1.15,1.15,0,0,1,1.61-1.07,3.41,3.41,0,0,1,1.7,1.4,1,1,0,0,1,.57-.26h.36s.45-2.16,1.43-2.25,1.52.44,1.43.84a3.3,3.3,0,0,1-1.6,1.67l1,4.24-3.6.2L30,17Zm.52-.66s-.78-.92-1.24-.92-.66.19-.66.46,1,.41,1.9.46Zm3.48-2c-.15,0-.37,0-.59.34a7.87,7.87,0,0,0-.53,1.11s.24-.1.43-.2,1-.74,1-1S34,14.36,34,14.36Z"/><path class="cls-1" d="M60.1,21.85a9.93,9.93,0,1,1-9.93,9.93V16.39A6.69,6.69,0,0,1,54.83,14V30.9c0,4.13,1.62,7.62,4.8,7.62,3.73,0,5.92-3,5.92-6.74a6.75,6.75,0,0,0-8.67-6.47,8.87,8.87,0,0,1,2.46-3.43c.25,0,.5,0,.76,0Zm38.2,0a9.93,9.93,0,1,1-9.92,9.93V16.39A6.67,6.67,0,0,1,93,14V30.9c0,4.13,1.61,7.62,4.8,7.62,3.72,0,5.92-3,5.92-6.74A6.75,6.75,0,0,0,97,25a6.82,6.82,0,0,0-1.93.28,9,9,0,0,1,2.47-3.43q.38,0,.75,0Zm20.77,2.34a6.71,6.71,0,0,1,4.66-2.38V39.33a6.66,6.66,0,0,1-4.66,2.37V24.19Zm2.33-10a2.34,2.34,0,1,1-2.33,2.33,2.33,2.33,0,0,1,2.33-2.33Zm-10.08-3.49A6.66,6.66,0,0,1,116,8.3v31a6.69,6.69,0,0,1-4.66,2.37v-31ZM80.87,24.19a6.69,6.69,0,0,1,4.66-2.38V39.33a6.67,6.67,0,0,1-4.66,2.37V24.19Zm2.33-10a2.34,2.34,0,1,1-2.34,2.33,2.33,2.33,0,0,1,2.34-2.33ZM73.11,10.67A6.67,6.67,0,0,1,77.77,8.3v31a6.67,6.67,0,0,1-4.66,2.37Z"/><rect class="cls-8" width="150" height="50"/></g></g></svg>