<svg xmlns="http://www.w3.org/2000/svg" width="53.333" height="53.333" viewBox="0 0 53.333 53.333"><defs><style>.a{fill:none;}.b,.c{fill:#1565d8;}.b{opacity:0.3;}</style></defs><path class="a" d="M0,0H53.333V53.333H0Z"/><path class="b" d="M29.867,17.067v9.6a3.2,3.2,0,0,1-3.2,3.2H3.2a3.2,3.2,0,0,1-3.2-3.2V3.2A3.2,3.2,0,0,1,3.2,0h9.6V11.733a5.333,5.333,0,0,0,5.333,5.333Z" transform="translate(4.267 21.333)"/><path class="c" d="M3.2,0H26.667a3.2,3.2,0,0,1,3.2,3.2V26.667a3.2,3.2,0,0,1-3.2,3.2H3.2a3.2,3.2,0,0,1-3.2-3.2V3.2A3.2,3.2,0,0,1,3.2,0Z" transform="translate(19.2 6.4)"/></svg>