<svg id="Google_Play-Badge-Logo.wine" xmlns="http://www.w3.org/2000/svg" xmlns:xlink="http://www.w3.org/1999/xlink" width="141.583" height="42.018" viewBox="0 0 141.583 42.018">
  <defs>
    <linearGradient id="linear-gradient" x1="0.849" y1="0.31" x2="0.361" y2="0.799" gradientUnits="objectBoundingBox">
      <stop offset="0" stop-color="#00a0ff"/>
      <stop offset="0.007" stop-color="#00a1ff"/>
      <stop offset="0.26" stop-color="#00beff"/>
      <stop offset="0.512" stop-color="#00d2ff"/>
      <stop offset="0.76" stop-color="#00dfff"/>
      <stop offset="1" stop-color="#00e3ff"/>
    </linearGradient>
    <linearGradient id="linear-gradient-2" x1="0.97" y1="0.436" x2="-1.177" y2="0.436" gradientUnits="objectBoundingBox">
      <stop offset="0" stop-color="#ffe000"/>
      <stop offset="0.409" stop-color="#ffbd00"/>
      <stop offset="0.775" stop-color="orange"/>
      <stop offset="1" stop-color="#ff9c00"/>
    </linearGradient>
    <linearGradient id="linear-gradient-3" x1="0.761" y1="0.213" x2="-0.443" y2="1.411" gradientUnits="objectBoundingBox">
      <stop offset="0" stop-color="#ff3a44"/>
      <stop offset="1" stop-color="#c31162"/>
    </linearGradient>
    <linearGradient id="linear-gradient-4" x1="-0.17" y1="-0.275" x2="0.367" y2="0.26" gradientUnits="objectBoundingBox">
      <stop offset="0" stop-color="#32a071"/>
      <stop offset="0.068" stop-color="#2da771"/>
      <stop offset="0.476" stop-color="#15cf74"/>
      <stop offset="0.801" stop-color="#06e775"/>
      <stop offset="1" stop-color="#00f076"/>
    </linearGradient>
    <linearGradient id="linear-gradient-5" x1="0.624" y1="0.038" x2="-0.364" y2="1.027" gradientUnits="objectBoundingBox">
      <stop offset="0" stop-color="#cc2e36"/>
      <stop offset="1" stop-color="#9c0e4e"/>
    </linearGradient>
    <linearGradient id="linear-gradient-6" x1="5.233" y1="-7.998" x2="-1.121" y2="-1.634" gradientUnits="objectBoundingBox">
      <stop offset="0" stop-color="#008de0"/>
      <stop offset="0.007" stop-color="#008de0"/>
      <stop offset="0.26" stop-color="#00a7e0"/>
      <stop offset="0.512" stop-color="#00b8e0"/>
      <stop offset="0.76" stop-color="#00c4e0"/>
      <stop offset="1" stop-color="#00c7e0"/>
    </linearGradient>
    <linearGradient id="linear-gradient-7" x1="0.943" y1="-0.195" x2="-2.414" y2="-0.195" gradientUnits="objectBoundingBox">
      <stop offset="0" stop-color="#e0c500"/>
      <stop offset="0.409" stop-color="#e0a600"/>
      <stop offset="0.775" stop-color="#e09100"/>
      <stop offset="1" stop-color="#e08900"/>
    </linearGradient>
    <linearGradient id="linear-gradient-8" x1="0.944" y1="0.999" x2="-2.414" y2="0.999" gradientUnits="objectBoundingBox">
      <stop offset="0" stop-color="#ffe840"/>
      <stop offset="0.409" stop-color="#ffce40"/>
      <stop offset="0.775" stop-color="#ffbc40"/>
      <stop offset="1" stop-color="#ffb540"/>
    </linearGradient>
    <linearGradient id="linear-gradient-9" x1="5.219" y1="0.865" x2="-1.113" y2="6.933" gradientUnits="objectBoundingBox">
      <stop offset="0" stop-color="#40b8ff"/>
      <stop offset="0.007" stop-color="#40b9ff"/>
      <stop offset="0.26" stop-color="#40ceff"/>
      <stop offset="0.512" stop-color="#40ddff"/>
      <stop offset="0.76" stop-color="#40e7ff"/>
      <stop offset="1" stop-color="#40eaff"/>
    </linearGradient>
    <linearGradient id="linear-gradient-10" x1="-0.137" y1="-0.184" x2="0.304" y2="0.257" gradientUnits="objectBoundingBox">
      <stop offset="0" stop-color="#65b895"/>
      <stop offset="0.068" stop-color="#62bd95"/>
      <stop offset="0.476" stop-color="#50db97"/>
      <stop offset="0.801" stop-color="#44ed98"/>
      <stop offset="1" stop-color="#40f498"/>
    </linearGradient>
  </defs>
  <path id="Path_73" data-name="Path 73" d="M136.339,42.018H5.244A5.264,5.264,0,0,1,0,36.766V5.252A5.263,5.263,0,0,1,5.244,0h131.1a5.263,5.263,0,0,1,5.244,5.252V36.766a5.263,5.263,0,0,1-5.244,5.252" transform="translate(0)"/>
  <path id="Path_74" data-name="Path 74" d="M136.339,0H5.244A5.264,5.264,0,0,0,0,5.252V36.766a5.263,5.263,0,0,0,5.244,5.252h131.1a5.263,5.263,0,0,0,5.244-5.252V5.252A5.263,5.263,0,0,0,136.339,0m0,.84a4.413,4.413,0,0,1,4.4,4.412V36.766a4.414,4.414,0,0,1-4.4,4.412H5.244a4.414,4.414,0,0,1-4.4-4.412V5.252A4.414,4.414,0,0,1,5.244.84h131.1" transform="translate(0)" fill="#a6a6a6"/>
  <path id="Path_75" data-name="Path 75" d="M924.987,156.312a2.847,2.847,0,0,1-.781,2.1,3.049,3.049,0,0,1-2.312.933,3.292,3.292,0,1,1,0-6.585,3.241,3.241,0,0,1,1.292.264,2.6,2.6,0,0,1,.984.7l-.553.554a2.123,2.123,0,0,0-1.723-.748,2.517,2.517,0,1,0,1.758,4.331,1.984,1.984,0,0,0,.528-1.277h-2.285v-.757h3.049a2.7,2.7,0,0,1,.044.476" transform="translate(-875.257 -145.552)" fill="#fff"/>
  <path id="Path_76" data-name="Path 76" d="M922.872,154.192h-.1a2.741,2.741,0,0,1-.751,2.029h0a2.943,2.943,0,0,1-2.236.9,3.187,3.187,0,1,1,0-6.375,3.138,3.138,0,0,1,1.25.256,2.492,2.492,0,0,1,.945.676l.08-.068-.074-.074-.553.555.074.074.081-.067a2.232,2.232,0,0,0-1.8-.785,2.5,2.5,0,0,0-1.791.729,2.745,2.745,0,0,0,0,3.786,2.608,2.608,0,0,0,3.623-.005,2.091,2.091,0,0,0,.558-1.342l.01-.114h-2.295v-.547h2.944v-.105l-.1.018a2.552,2.552,0,0,1,.042.457h.21a2.778,2.778,0,0,0-.046-.494l-.016-.086h-3.242v.967h2.39v-.105l-.1-.009a1.881,1.881,0,0,1-.5,1.211,2.4,2.4,0,0,1-3.329,0,2.536,2.536,0,0,1,0-3.485,2.283,2.283,0,0,1,1.646-.67,2.018,2.018,0,0,1,1.643.71l.074.088.634-.636.068-.068-.062-.074a2.7,2.7,0,0,0-1.023-.733,3.346,3.346,0,0,0-1.333-.273,3.4,3.4,0,1,0,0,6.795,3.156,3.156,0,0,0,2.388-.965l-.076-.073.074.074a2.954,2.954,0,0,0,.812-2.178h-.1m4.834-2.633H924.84v2h2.584v.757H924.84v2h2.866v.774h-3.673v-6.3h3.673v.774" transform="translate(-873.141 -143.432)" fill="#fff"/>
  <path id="Path_77" data-name="Path 77" d="M1079.525,154.409V154.3h-2.97v2.209h2.584v.547h-2.584v2.209h2.866v.564h-3.464V153.74h3.464v.669h.1v0h.105v-.879h-3.883v6.513h3.883v-.984h-2.866V157.27h2.584V156.3h-2.584v-1.788h2.866v-.105h-.105m3.41,5.529h-.809v-5.529h-1.757v-.774h4.324v.774h-1.758v5.528" transform="translate(-1024.961 -146.282)" fill="#fff"/>
  <path id="Path_78" data-name="Path 78" d="M1174.094,159.938v-.105h-.7V154.3h-1.758v-.564h4.115v.564h-1.758v5.634h.1v0h.105v-5.423h1.757v-.984h-4.534v.984h1.757v5.528h1.019v-.105h-.105m4.886,0v-6.3h.808v6.3h-.808" transform="translate(-1116.12 -146.282)" fill="#fff"/>
  <path id="Path_79" data-name="Path 79" d="M1329.394,159.938h.105v-6.2h.6v6.093h-.7v.105h0v.105h.913V153.53h-1.018v6.513h.1v-.105m4.4,0h-.809v-5.529h-1.757v-.774h4.324v.774h-1.758v5.528" transform="translate(-1266.533 -146.282)" fill="#fff"/>
  <path id="Path_80" data-name="Path 80" d="M1370.686,159.208V159.1h-.7v-5.528h-1.758v-.564h4.114v.564h-1.757v5.633h.1v0h.1v-5.423h1.758V152.8h-4.534v.984h1.757v5.529h1.019v-.105h-.1m5.926-1.342a2.417,2.417,0,0,0,3.419,0,2.689,2.689,0,0,0,0-3.618,2.417,2.417,0,0,0-3.419,0,2.692,2.692,0,0,0,0,3.618Zm4.017.528a3.263,3.263,0,0,1-4.614,0,3.409,3.409,0,0,1,0-4.674,3.252,3.252,0,0,1,4.61,0,3.4,3.4,0,0,1,0,4.67Z" transform="translate(-1303.431 -145.552)" fill="#fff"/>
  <path id="Path_81" data-name="Path 81" d="M1517.257,155.746l-.074.074a2.522,2.522,0,0,0,3.568,0,2.794,2.794,0,0,0,0-3.766,2.522,2.522,0,0,0-3.568,0,2.8,2.8,0,0,0,0,3.766l.074-.074.075-.074a2.587,2.587,0,0,1,0-3.471,2.312,2.312,0,0,1,3.27,0,2.586,2.586,0,0,1,0,3.471,2.312,2.312,0,0,1-3.27,0Zm4.017.528-.075-.073a3.159,3.159,0,0,1-4.464,0l0,0,0,0a3.3,3.3,0,0,1,0-4.528,3.148,3.148,0,0,1,4.46,0,3.293,3.293,0,0,1,0,4.523l.075.073.075.073a3.5,3.5,0,0,0,0-4.816,3.357,3.357,0,0,0-4.76,0h0a3.514,3.514,0,0,0,0,4.821l0,0,0,0a3.368,3.368,0,0,0,4.765,0Zm2.062.815v-6.3h.984l3.058,4.9h.035l-.035-1.215v-3.688h.809v6.3h-.844l-3.2-5.141h-.035l.035,1.215v3.926h-.808" transform="translate(-1444.075 -143.432)" fill="#fff"/>
  <path id="Path_82" data-name="Path 82" d="M947.954,159.938h.1v-6.2h.821l3.058,4.9h.2l-.038-1.321V153.74h.6v6.093h-.681l-3.2-5.141h-.2l.038,1.322v3.819h-.7v.105h0v.105h.913V156.01l-.035-1.216-.1,0v.105h.035V154.8l-.089.056,3.23,5.19h1.007V153.53h-1.019v3.795l.035,1.216.1,0v-.105H952v.105l.089-.056L949,153.53h-1.147v6.513h.1v-.105m32.89,17.858H982.8V164.664h-1.957Zm17.626-8.4-2.243,5.693h-.067l-2.328-5.693h-2.108l3.491,7.958-1.99,4.426h2.042l5.38-12.384Zm-11.1,6.91c-.642,0-1.535-.321-1.535-1.115,0-1.014,1.114-1.4,2.074-1.4a3.479,3.479,0,0,1,1.788.439A2.374,2.374,0,0,1,987.372,176.3Zm.236-7.2a3.673,3.673,0,0,0-3.491,2.011l1.737.726a1.854,1.854,0,0,1,1.788-.963,1.885,1.885,0,0,1,2.058,1.69v.135a4.322,4.322,0,0,0-2.041-.507c-1.872,0-3.779,1.03-3.779,2.956a3.031,3.031,0,0,0,3.255,2.889,2.761,2.761,0,0,0,2.5-1.284h.067v1.014h1.889v-5.035C991.589,170.408,989.852,169.107,987.609,169.107Zm-12.094,1.886h-2.783v-4.5h2.783a2.251,2.251,0,1,1,0,4.5Zm-.05-6.329h-4.689V177.8h1.956V172.82h2.733a4.084,4.084,0,1,0,0-8.157Zm-25.57,11.643a2.718,2.718,0,0,1,0-5.416,2.73,2.73,0,0,1,0,5.416Zm2.247-6.177h-.068a3.09,3.09,0,0,0-2.349-1,4.472,4.472,0,0,0,0,8.935,3.04,3.04,0,0,0,2.349-1.015h.068v.643c0,1.71-.912,2.623-2.382,2.623a2.47,2.47,0,0,1-2.247-1.591l-1.706.711a4.251,4.251,0,0,0,3.953,2.64c2.3,0,4.241-1.354,4.241-4.654V169.4h-1.859Zm3.21,7.666h1.96V164.663h-1.96Zm4.849-4.332a2.448,2.448,0,0,1,2.331-2.606,1.725,1.725,0,0,1,1.656.948Zm6.082-1.489a4.146,4.146,0,0,0-3.819-2.843,4.243,4.243,0,0,0-4.207,4.468,4.368,4.368,0,0,0,4.427,4.468,4.436,4.436,0,0,0,3.718-1.98l-1.521-1.016a2.546,2.546,0,0,1-2.2,1.236,2.269,2.269,0,0,1-2.163-1.354l5.964-2.471ZM918.765,170.5v1.9h4.528a3.958,3.958,0,0,1-1.031,2.386,4.63,4.63,0,0,1-3.5,1.388,5.044,5.044,0,0,1,0-10.086,4.822,4.822,0,0,1,3.413,1.354l1.335-1.337a6.6,6.6,0,0,0-4.748-1.913,6.939,6.939,0,1,0,0,13.877,6.136,6.136,0,0,0,6.471-6.38,6.152,6.152,0,0,0-.1-1.185Zm11.619,5.8A2.715,2.715,0,1,1,932.9,173.6,2.583,2.583,0,0,1,930.385,176.306Zm0-7.175a4.468,4.468,0,1,0,4.477,4.468A4.4,4.4,0,0,0,930.385,169.131Zm9.767,7.175a2.715,2.715,0,1,1,2.518-2.708A2.583,2.583,0,0,1,940.152,176.306Zm0-7.175a4.468,4.468,0,1,0,4.477,4.468A4.4,4.4,0,0,0,940.152,169.131Z" transform="translate(-868.693 -146.282)" fill="#fff"/>
  <path id="Path_83" data-name="Path 83" d="M222.1,162.475a2.031,2.031,0,0,0-.562,1.553v22.925a2.106,2.106,0,0,0,.485,1.476l.078.075h0a1.347,1.347,0,0,0,.927.341,2.413,2.413,0,0,0,1.175-.352l15.223-8.663,5.229-2.976a1.957,1.957,0,0,0,1.1-1.362v0a1.956,1.956,0,0,0-1.1-1.363l-5.229-2.976-15.223-8.663a2.417,2.417,0,0,0-1.177-.353,1.349,1.349,0,0,0-.926.341Z" transform="translate(-211.082 -154.48)" fill="#00c1ff"/>
  <path id="Path_84" data-name="Path 84" d="M.678-525.537.6-525.612a2.106,2.106,0,0,1-.485-1.476v-22.925a2.03,2.03,0,0,1,.562-1.553l12.994,13.015L.678-525.537" transform="translate(10.344 559.561)" fill="url(#linear-gradient)"/>
  <path id="Path_85" data-name="Path 85" d="M5.018-175.888l-4.332-4.34,4.332-4.339,5.229,2.976a1.957,1.957,0,0,1,1.1,1.363v0a1.957,1.957,0,0,1-1.1,1.362l-5.229,2.976" transform="translate(23.329 201.238)" fill="url(#linear-gradient-2)"/>
  <path id="Path_86" data-name="Path 86" d="M1.367-269.661A1.347,1.347,0,0,1,.44-270h0l12.993-13.014,4.332,4.34L2.542-270.014a2.413,2.413,0,0,1-1.175.352" transform="translate(10.582 304.027)" fill="url(#linear-gradient-3)"/>
  <path id="Path_87" data-name="Path 87" d="M13.184-270.249.19-283.264a1.349,1.349,0,0,1,.926-.341,2.416,2.416,0,0,1,1.177.353l15.223,8.663-4.332,4.339" transform="translate(10.831 291.259)" fill="url(#linear-gradient-4)"/>
  <path id="Path_88" data-name="Path 88" d="M1.795-185.924a1.35,1.35,0,0,1-.927-.342h0l0,0L.8-186.335l-.007-.007.078-.078a1.347,1.347,0,0,0,.927.341,2.412,2.412,0,0,0,1.175-.352l15.223-8.663.1.1-.1.056L2.969-186.277a2.5,2.5,0,0,1-1.079.35l-.1,0" transform="translate(10.154 220.444)" fill="url(#linear-gradient-5)"/>
  <path id="Path_89" data-name="Path 89" d="M.6-33.676a2.1,2.1,0,0,1-.485-1.476v-.153A2.106,2.106,0,0,0,.6-33.829l.078.075L.6-33.676" transform="translate(10.344 67.778)" fill="url(#linear-gradient-6)"/>
  <path id="Path_90" data-name="Path 90" d="M.74-89.691l-.1-.1,5.229-2.976a1.957,1.957,0,0,0,1.1-1.362,1.3,1.3,0,0,1-.121.542,2.252,2.252,0,0,1-.978.974L.74-89.691" transform="translate(27.705 115.139)" fill="url(#linear-gradient-7)"/>
  <path id="Path_91" data-name="Path 91" d="M6.962-90.248a1.957,1.957,0,0,0-1.1-1.363L.633-94.586l.1-.1h0l5.132,2.92a1.844,1.844,0,0,1,1.1,1.516" transform="translate(27.713 111.257)" fill="url(#linear-gradient-8)"/>
  <path id="Path_92" data-name="Path 92" d="M.115-33.128v-.161c0-.058,0-.114,0-.169v0a.007.007,0,0,1,0,0v-.006A2,2,0,0,1,.6-34.758l.077.077a2.031,2.031,0,0,0-.562,1.553" transform="translate(10.344 42.676)" fill="url(#linear-gradient-9)"/>
  <path id="Path_93" data-name="Path 93" d="M18.191-185.733,2.969-194.4a2.417,2.417,0,0,0-1.177-.353,1.349,1.349,0,0,0-.926.341l-.077-.077q.036-.038.075-.073l0,0a1.348,1.348,0,0,1,.917-.341h.008a2.416,2.416,0,0,1,1.177.353l15.321,8.719h0l-.1.1" transform="translate(10.155 202.404)" fill="url(#linear-gradient-10)"/>
</svg>
