<svg width="18" height="20" viewBox="0 0 18 20" fill="none" xmlns="http://www.w3.org/2000/svg">
<path d="M9.00012 0.0351562C6.79507 0.0375822 4.68102 0.914552 3.12173 2.47368C1.56245 4.03281 0.685264 6.14677 0.682617 8.35182C0.682617 10.4935 2.34095 13.8452 5.61178 18.3135C6.00117 18.8469 6.511 19.2809 7.09979 19.5801C7.68857 19.8793 8.33968 20.0352 9.00012 20.0352C9.66056 20.0352 10.3117 19.8793 10.9005 19.5801C11.4892 19.2809 11.9991 18.8469 12.3885 18.3135C15.6593 13.8452 17.3176 10.4935 17.3176 8.35182C17.315 6.14677 16.4378 4.03281 14.8785 2.47368C13.3192 0.914552 11.2052 0.0375822 9.00012 0.0351562ZM9.00012 11.6668C8.34085 11.6668 7.69638 11.4713 7.14822 11.1051C6.60005 10.7388 6.17281 10.2182 5.92052 9.6091C5.66823 9.00001 5.60222 8.32979 5.73083 7.68319C5.85945 7.03658 6.17692 6.44264 6.6431 5.97647C7.10927 5.51029 7.70321 5.19282 8.34982 5.06421C8.99642 4.93559 9.66664 5.0016 10.2757 5.25389C10.8848 5.50618 11.4054 5.93342 11.7717 6.48159C12.138 7.02975 12.3335 7.67422 12.3335 8.33349C12.3335 9.21754 11.9823 10.0654 11.3571 10.6905C10.732 11.3156 9.88417 11.6668 9.00012 11.6668Z" fill="#0B69FD"/>
</svg>
