<svg xmlns="http://www.w3.org/2000/svg" width="43.135" height="43.135" viewBox="0 0 43.135 43.135"><defs><style>.a{fill:none;stroke:#fff;stroke-width:2px;fill-rule:evenodd;}</style></defs><g transform="translate(-152.52 -347)"><g transform="translate(153.52 358.535)"><path class="a" d="M-33.218-26.8a12.1,12.1,0,0,0,4.232-1.539,12.116,12.116,0,0,1-1.858,2.4l-3.132,3.132s-.009.009-.013.009a.676.676,0,0,1-.055.055l-3.069,3.073a12.205,12.205,0,0,1-8.613,3.559h-.009A12.122,12.122,0,0,1-57.881-28.193v-.072h-.009a12.149,12.149,0,0,1,3.239-8.285c.1-.115.209-.226.32-.337l6.269-6.269c.111-.111.222-.217.337-.32A11.628,11.628,0,0,1-45.4-45.163a12.1,12.1,0,0,1,5.945-1.547l.017.013h.1a12.012,12.012,0,0,1,4.573.921,12.152,12.152,0,0,1,6.542,6.538l-3.695,3.695c-.06.06-.119.115-.179.17s-.1.094-.158.136a4.685,4.685,0,0,1-2,.946l0,0a4.611,4.611,0,0,1-.593.081,4.662,4.662,0,0,0,0-.771,4.627,4.627,0,0,0-4.607-4.2c-.11,0-.222,0-.332.013a4.569,4.569,0,0,0-1.436.341,4.644,4.644,0,0,0-1.5,1.006L-49-31.547a4.628,4.628,0,0,0-1.347,3.273h-.009A4.633,4.633,0,0,0-49-25a4.588,4.588,0,0,0,2.843,1.33,4.726,4.726,0,0,0,3.435-1.087l0,0c.09-.077.175-.153.26-.239l2.578-2.578a.583.583,0,0,0,.077.034,12.011,12.011,0,0,0,4.6.891v.013c.145,0,.29,0,.435-.009.068,0,.136,0,.2-.009.107,0,.213-.013.32-.017.341-.03.682-.068,1.019-.124" transform="translate(57.89 46.71)"/></g><g transform="translate(164.992 348)"><path class="a" d="M-39.938-16.365A12.187,12.187,0,0,1-43.5-7.752l-6.269,6.278a12.132,12.132,0,0,1-2.4,1.858A12.1,12.1,0,0,1-56.4,1.922a12.254,12.254,0,0,1-1.977.158V2.067a12.011,12.011,0,0,1-4.6-.891.61.61,0,0,1-.077-.034A12.05,12.05,0,0,1-69.591-5.37c0-.013-.009-.021-.009-.03l3.691-3.691a4.638,4.638,0,0,1,1.5-1.006,4.569,4.569,0,0,1,1.436-.341c-.008.107-.013.213-.013.32v.038H-63A4.627,4.627,0,0,0-59.853-5.7a.3.3,0,0,0,.068.021,4.346,4.346,0,0,0,.98.2,4.662,4.662,0,0,0,.771,0,4.61,4.61,0,0,0,.593-.081l0,0a4.685,4.685,0,0,0,2-.946c.055-.043.107-.089.158-.136s.119-.111.179-.17l6.269-6.269c.081-.081.162-.162.235-.247A4.728,4.728,0,0,0-47.5-16.783a4.625,4.625,0,0,0-4.6-4.2v.017a4.585,4.585,0,0,0-3.273,1.338l-2.574,2.574a12.01,12.01,0,0,0-4.573-.921h-.1l-.017-.013a12.1,12.1,0,0,0-5.945,1.547,8.329,8.329,0,0,1,1.6-2.254l6.269-6.269c.1-.1.2-.2.311-.3h0a12.145,12.145,0,0,1,8.3-3.26h.009a12.151,12.151,0,0,1,8.6,3.559,12.107,12.107,0,0,1,3.55,8.6Z" transform="translate(69.6 28.52)"/></g></g></svg>