<svg id="Cup_thropy_referral_ranking_title" data-name="Cup thropy referral ranking title" xmlns="http://www.w3.org/2000/svg" xmlns:xlink="http://www.w3.org/1999/xlink" width="95.707" height="100" viewBox="0 0 95.707 100">
  <defs>
    <clipPath id="clip-path">
      <rect id="Rectangle_3767" data-name="Rectangle 3767" width="95.707" height="100" fill="none"/>
    </clipPath>
    <clipPath id="clip-path-2">
      <path id="Path_7433" data-name="Path 7433" d="M34.764,28.675q-1.016.427-2.006.9a45.811,45.811,0,0,0-11.341,7.717q-.13.12-.259.243-1.268,1.194-2.444,2.483A45.55,45.55,0,0,0,6.8,70.725v.056a45.662,45.662,0,0,0,33.031,43.893q.854.245,1.72.458.611.149,1.228.283.361.078.724.15a46.1,46.1,0,0,0,17.919,0q.364-.071.725-.15.455-.1.906-.206.745-.176,1.481-.378a45.658,45.658,0,0,0,33.591-44.05q0-.334-.005-.666a45.688,45.688,0,0,0-63.353-41.44" transform="translate(-6.797 -25.119)" fill="none"/>
    </clipPath>
    <linearGradient id="linear-gradient" x1="-0.026" y1="1.001" x2="-0.022" y2="1.001" gradientUnits="objectBoundingBox">
      <stop offset="0" stop-color="#5abcff"/>
      <stop offset="0.994" stop-color="#99d5ff"/>
      <stop offset="1" stop-color="#99d5ff"/>
    </linearGradient>
    <clipPath id="clip-path-4">
      <rect id="Rectangle_3763" data-name="Rectangle 3763" width="91.195" height="84.55" fill="none"/>
    </clipPath>
    <clipPath id="clip-path-5">
      <rect id="Rectangle_3764" data-name="Rectangle 3764" width="8.455" height="6.84" fill="none"/>
    </clipPath>
    <clipPath id="clip-path-6">
      <rect id="Rectangle_3765" data-name="Rectangle 3765" width="16.541" height="31.169" fill="none"/>
    </clipPath>
  </defs>
  <g id="Group_4951" data-name="Group 4951" clip-path="url(#clip-path)">
    <g id="Group_4939" data-name="Group 4939" transform="translate(2.33 8.612)">
      <g id="Group_4938" data-name="Group 4938" clip-path="url(#clip-path-2)">
        <rect id="Rectangle_3762" data-name="Rectangle 3762" width="91.325" height="91.325" transform="translate(0 0)" fill="url(#linear-gradient)"/>
      </g>
    </g>
    <g id="Group_4950" data-name="Group 4950">
      <g id="Group_4949" data-name="Group 4949" clip-path="url(#clip-path)">
        <g id="Group_4942" data-name="Group 4942" transform="translate(2.46 15.387)" opacity="0.16">
          <g id="Group_4941" data-name="Group 4941">
            <g id="Group_4940" data-name="Group 4940" clip-path="url(#clip-path-4)">
              <path id="Path_7434" data-name="Path 7434" d="M93.527,63.279q-.683-.365-1.4-.67a17.025,17.025,0,0,0-6.5-1.348l.2-4.455h.685a3.388,3.388,0,0,0,2.345-.941q-1.2-1.559-2.537-3.008a45.866,45.866,0,0,0-9.665-7.977H28.764q-1.3.8-2.547,1.691a45.807,45.807,0,0,0-4.551,3.708l-.26.242q-.99.932-1.924,1.923l.354,1.672a3.392,3.392,0,0,0,3.319,2.689h.685l.076,1.663.128,2.792a17.026,17.026,0,0,0-6.5,1.348,17.315,17.315,0,0,0-1.656.808,17.211,17.211,0,0,0-6.878,7.069A45.507,45.507,0,0,0,7.176,80.3a16.994,16.994,0,0,0,1.245,4.777,17.193,17.193,0,0,0,9.121,9.12,17.033,17.033,0,0,0,6.674,1.349H27.5A29.78,29.78,0,0,0,48.127,112.82l-.1.471-.126.576L45.6,124.4H44.56a3.607,3.607,0,0,0-3.6,3.458H40.8q.494.133.992.256.611.15,1.228.283.361.079.724.15a46.116,46.116,0,0,0,17.919,0q.363-.072.724-.15.455-.1.906-.205.745-.176,1.481-.378,1.866-.51,3.665-1.172a3.608,3.608,0,0,0-3.339-2.241H64.064l-1.807-8.291-.718-3.294A29.78,29.78,0,0,0,82.169,95.547H85.45a17.1,17.1,0,0,0,12.122-5.021c.12-.12.238-.243.355-.367a46.072,46.072,0,0,0,.444-6.392q0-.334-.005-.666a45.444,45.444,0,0,0-4.839-19.822M24.216,89.122a10.718,10.718,0,0,1,0-21.436h.124l.785,17.126a29.884,29.884,0,0,0,.452,4.31Zm61.235,0H84.09a29.886,29.886,0,0,0,.452-4.31l.785-17.126h.124a10.718,10.718,0,1,1,0,21.436" transform="translate(-7.176 -44.88)"/>
            </g>
          </g>
        </g>
        <path id="Path_7435" data-name="Path 7435" d="M129.475,244.578q-.451.107-.906.205-.361.078-.724.15H109.925q-.363-.072-.724-.15-.617-.133-1.228-.283l.758-3.475.754-3.458,2.3-10.537.229-1.048.893-4.1h11.625l.894,4.1.718,3.294,1.807,8.291.754,3.458Z" transform="translate(-70.955 -145.812)" fill="#ffd31d"/>
        <path id="Path_7436" data-name="Path 7436" d="M131.829,221.883H120.2l-1.122,5.147a29.632,29.632,0,0,0,11.645,2.369q1.372,0,2.714-.123Z" transform="translate(-78.255 -145.812)" fill="#ffab2e"/>
        <path id="Path_7437" data-name="Path 7437" d="M126.582,271.239a3.609,3.609,0,0,1-1.64,3.024q-.736.2-1.481.379-.451.107-.906.205H103.187q-.618-.133-1.228-.283-.867-.213-1.72-.458a3.6,3.6,0,0,1-1.418-2.867c0-.05,0-.1,0-.15a3.608,3.608,0,0,1,3.6-3.458h20.545a3.608,3.608,0,0,1,3.6,3.458c0,.05,0,.1,0,.15" transform="translate(-64.941 -175.876)" fill="#ffbf1f"/>
        <path id="Path_7438" data-name="Path 7438" d="M121.98,278.352A45.345,45.345,0,0,1,115,280.891q-.736.2-1.481.378-.452.107-.906.205-.361.078-.724.15a46.115,46.115,0,0,1-17.919,0q-.363-.072-.724-.15-.617-.133-1.228-.283-.867-.212-1.72-.458a45.217,45.217,0,0,1-6.6-2.467,4.493,4.493,0,0,1,2.156-.55h33.821a4.5,4.5,0,0,1,2.308.636" transform="translate(-55 -182.503)" fill="#594a43"/>
        <path id="Path_7439" data-name="Path 7439" d="M94.173,93.922A17.131,17.131,0,0,0,78.548,83.453H16.973a17.029,17.029,0,0,0-6.5,1.348,17.347,17.347,0,0,0-1.656.808,17.143,17.143,0,0,0,8.33,32.13H78.378a17.163,17.163,0,0,0,15.209-9.227q.317-.607.586-1.243a17.189,17.189,0,0,0,0-13.347M78.378,111.313H17.143a10.718,10.718,0,0,1,0-21.436H78.378a10.718,10.718,0,1,1,0,21.436" transform="translate(0 -54.841)" fill="#ffbf1f"/>
        <path id="Path_7440" data-name="Path 7440" d="M56.255,89.877h58.9a10.72,10.72,0,0,1,2.114.21l.3-6.467a17.244,17.244,0,0,0-2.24-.167H55.961Z" transform="translate(-36.775 -54.841)" fill="#ffab2e"/>
        <path id="Path_7441" data-name="Path 7441" d="M118.938,164.595c-.311.027-.625.042-.942.042H60.286a29.542,29.542,0,0,0,1.827,6.425H117.1a29.534,29.534,0,0,0,1.834-6.467" transform="translate(-39.617 -108.165)" fill="#ffab2e"/>
        <path id="Path_7442" data-name="Path 7442" d="M45.424,89.965a10.784,10.784,0,0,1,1.376-.088h59.753l.294-6.425H46.63q-.755.007-1.5.079Z" transform="translate(-29.657 -54.841)" fill="#ffab2e"/>
        <path id="Path_7443" data-name="Path 7443" d="M106.557,171.133a29.577,29.577,0,0,0,1.533-6.425H49.4c-.1,0-.209,0-.312,0a29.551,29.551,0,0,0,1.533,6.43Z" transform="translate(-32.261 -108.236)" fill="#ffab2e"/>
        <path id="Path_7444" data-name="Path 7444" d="M79.612,120.9h0A29.724,29.724,0,0,1,49.9,92.126L48.469,60.813h62.287l-1.435,31.313A29.724,29.724,0,0,1,79.612,120.9" transform="translate(-31.852 -39.964)" fill="#ffd31d"/>
        <path id="Path_7445" data-name="Path 7445" d="M110.32,70.315l.435-9.5H48.468l.228,4.971Z" transform="translate(-31.851 -39.964)" fill="#ffab2e"/>
        <path id="Path_7446" data-name="Path 7446" d="M101.673,47.6H38.32A3.393,3.393,0,0,1,35,44.911l-1.09-5.141a3.392,3.392,0,0,1,3.319-4.1h65.532a3.392,3.392,0,0,1,3.319,4.1l-1.09,5.141a3.392,3.392,0,0,1-3.319,2.689" transform="translate(-22.236 -23.443)" fill="#ffbf1f"/>
        <path id="Path_7447" data-name="Path 7447" d="M79.184,43.577H44.457a1.258,1.258,0,1,1,0-2.517H79.184a1.258,1.258,0,1,1,0,2.517" transform="translate(-28.388 -26.983)" fill="#fff"/>
        <path id="Path_7448" data-name="Path 7448" d="M161.154,42.873a1.3,1.3,0,0,0-1.844-1.844,1.3,1.3,0,0,0,1.844,1.844" transform="translate(-104.471 -26.741)" fill="#fff"/>
        <path id="Path_7449" data-name="Path 7449" d="M222.178,5.956a1.3,1.3,0,0,1-1.271-1.023l-.643-3.35a1.3,1.3,0,1,1,2.545-.56l.644,3.35a1.3,1.3,0,0,1-1.274,1.583" transform="translate(-144.728 0)" fill="#ffd31d"/>
        <path id="Path_7450" data-name="Path 7450" d="M246.569,9.086a1.3,1.3,0,0,1-1.075-2.037l3.261-4.8a1.3,1.3,0,1,1,2.153,1.468l-3.261,4.8a1.3,1.3,0,0,1-1.078.569" transform="translate(-161.179 -1.106)" fill="#ffbf1f"/>
        <path id="Path_7451" data-name="Path 7451" d="M261.413,36.93a1.3,1.3,0,0,1-.212-2.588l3.923-.688a1.3,1.3,0,1,1,.426,2.571l-3.923.687a1.307,1.307,0,0,1-.215.017" transform="translate(-170.935 -22.104)" fill="#ffd31d"/>
        <g id="Group_4945" data-name="Group 4945" transform="translate(20.336 29.649)" opacity="0.8">
          <g id="Group_4944" data-name="Group 4944">
            <g id="Group_4943" data-name="Group 4943" clip-path="url(#clip-path-5)">
              <path id="Path_7452" data-name="Path 7452" d="M66.959,93.32c.34-4.129.811-6.84.811-6.84l-8.164.126q-.246,3.544-.291,6.714Z" transform="translate(-59.315 -86.48)" fill="#ffef42"/>
            </g>
          </g>
        </g>
        <g id="Group_4948" data-name="Group 4948" transform="translate(20.415 42.417)" opacity="0.8">
          <g id="Group_4947" data-name="Group 4947">
            <g id="Group_4946" data-name="Group 4946" clip-path="url(#clip-path-6)">
              <path id="Path_7453" data-name="Path 7453" d="M66.793,123.723H59.545c1.323,29.971,16.541,31.169,16.541,31.169-8.166-6.627-9.54-20.721-9.292-31.169" transform="translate(-59.545 -123.723)" fill="#ffef42"/>
            </g>
          </g>
        </g>
        <path id="Path_7454" data-name="Path 7454" d="M109.585,92.07l3.052,6.185a2.541,2.541,0,0,0,1.913,1.39l6.825.991a2.541,2.541,0,0,1,1.408,4.334l-4.939,4.814a2.54,2.54,0,0,0-.731,2.249l1.166,6.8a2.541,2.541,0,0,1-3.687,2.679l-6.1-3.209a2.541,2.541,0,0,0-2.365,0l-6.1,3.209a2.541,2.541,0,0,1-3.687-2.679l1.166-6.8a2.542,2.542,0,0,0-.731-2.249L91.83,104.97a2.541,2.541,0,0,1,1.408-4.334l6.825-.991a2.541,2.541,0,0,0,1.913-1.39l3.052-6.185a2.541,2.541,0,0,1,4.557,0" transform="translate(-59.841 -59.574)" fill="#fff"/>
        <path id="Path_7455" data-name="Path 7455" d="M194.739,57.955l-4.008-4.212a.737.737,0,0,0-1.062-.005l-4.134,4.252a.737.737,0,0,1-1.265-.514V34.283a.833.833,0,0,1,.833-.833h10.075a.833.833,0,0,1,.833.833V57.447a.737.737,0,0,1-1.271.508" transform="translate(-121.093 -21.982)" fill="#0b69fd"/>
        <path id="Path_7456" data-name="Path 7456" d="M195.333,38.183h-7.744a.989.989,0,1,1,0-1.978h7.744a.989.989,0,1,1,0,1.978" transform="translate(-122.626 -23.792)" fill="#fff"/>
        <path id="Path_7457" data-name="Path 7457" d="M3.632,104.877q-.031,0-.062,0a.61.61,0,0,1-.546-.668A12.575,12.575,0,0,1,4.6,99.29,15.686,15.686,0,0,1,7.3,95.8a17.243,17.243,0,0,1,3.707-2.8.61.61,0,0,1,.565,1.082A16.343,16.343,0,0,0,8.13,96.695a12.378,12.378,0,0,0-3.892,7.633.61.61,0,0,1-.606.549" transform="translate(-1.985 -61.066)" fill="#fff083"/>
        <path id="Path_7458" data-name="Path 7458" d="M234.224,153.861a.61.61,0,0,1-.055-1.218,11.637,11.637,0,0,0,3.6-1.1,9.641,9.641,0,0,0,5.095-5.724.61.61,0,0,1,1.156.39,10.966,10.966,0,0,1-5.757,6.451,12.615,12.615,0,0,1-3.983,1.2l-.056,0" transform="translate(-153.522 -95.552)" fill="#fff083"/>
        <path id="Path_7459" data-name="Path 7459" d="M74.715,96.106a5.256,5.256,0,0,0-2.851,2.851.242.242,0,0,1-.446,0,5.257,5.257,0,0,0-2.852-2.851.242.242,0,0,1,0-.446,5.257,5.257,0,0,0,2.852-2.851.242.242,0,0,1,.446,0,5.256,5.256,0,0,0,2.851,2.851.242.242,0,0,1,0,.446" transform="translate(-44.962 -60.893)" fill="#fff"/>
        <path id="Path_7460" data-name="Path 7460" d="M208.394,172.214a5.256,5.256,0,0,0-2.851,2.851.242.242,0,0,1-.446,0,5.257,5.257,0,0,0-2.852-2.851.242.242,0,0,1,0-.446,5.257,5.257,0,0,0,2.852-2.851.242.242,0,0,1,.446,0,5.256,5.256,0,0,0,2.851,2.851.242.242,0,0,1,0,.446" transform="translate(-132.81 -110.908)" fill="#fff"/>
        <path id="Path_7461" data-name="Path 7461" d="M55.1,71.6a9.252,9.252,0,0,0-5.017,5.018.426.426,0,0,1-.784,0A9.251,9.251,0,0,0,44.283,71.6a.425.425,0,0,1,0-.784A9.248,9.248,0,0,0,49.3,65.8a.426.426,0,0,1,.784,0A9.249,9.249,0,0,0,55.1,70.816a.425.425,0,0,1,0,.784" transform="translate(-28.93 -43.069)" fill="#fff"/>
        <path id="Path_7462" data-name="Path 7462" d="M187.678,211.048a9.251,9.251,0,0,0-5.017,5.017.426.426,0,0,1-.784,0,9.25,9.25,0,0,0-5.018-5.017.425.425,0,0,1,0-.784,9.249,9.249,0,0,0,5.018-5.018.426.426,0,0,1,.784,0,9.251,9.251,0,0,0,5.017,5.018.425.425,0,0,1,0,.784" transform="translate(-116.053 -134.708)" fill="#fff"/>
      </g>
    </g>
  </g>
</svg>
