<svg xmlns="http://www.w3.org/2000/svg" width="21.875" height="17.767" viewBox="0 0 21.875 17.767">
  <path id="Icon_awesome-twitter" data-name="Icon awesome-twitter" d="M19.627,7.809c.014.194.014.389.014.583A12.669,12.669,0,0,1,6.885,21.148,12.669,12.669,0,0,1,0,19.135a9.274,9.274,0,0,0,1.083.055,8.979,8.979,0,0,0,5.566-1.915,4.491,4.491,0,0,1-4.192-3.109,5.654,5.654,0,0,0,.847.069,4.742,4.742,0,0,0,1.18-.153,4.484,4.484,0,0,1-3.6-4.4V9.627a4.515,4.515,0,0,0,2.026.569,4.49,4.49,0,0,1-1.388-6,12.744,12.744,0,0,0,9.244,4.692,5.061,5.061,0,0,1-.111-1.027A4.488,4.488,0,0,1,18.419,4.8a8.827,8.827,0,0,0,2.845-1.083,4.471,4.471,0,0,1-1.971,2.471,8.988,8.988,0,0,0,2.582-.694,9.638,9.638,0,0,1-2.249,2.318Z" transform="translate(0 -3.381)" fill="#fff"/>
</svg>
