<svg xmlns="http://www.w3.org/2000/svg" width="21.876" height="21.871" viewBox="0 0 21.876 21.871">
  <path id="Icon_awesome-instagram" data-name="Icon awesome-instagram" d="M10.935,7.566a5.607,5.607,0,1,0,5.607,5.607A5.6,5.6,0,0,0,10.935,7.566Zm0,9.253a3.646,3.646,0,1,1,3.646-3.646A3.652,3.652,0,0,1,10.935,16.819ZM18.08,7.336a1.308,1.308,0,1,1-1.308-1.308A1.3,1.3,0,0,1,18.08,7.336Zm3.714,1.327a6.473,6.473,0,0,0-1.767-4.583,6.515,6.515,0,0,0-4.583-1.767c-1.806-.1-7.218-.1-9.024,0A6.506,6.506,0,0,0,1.838,4.076,6.494,6.494,0,0,0,.072,8.659c-.1,1.806-.1,7.218,0,9.024a6.473,6.473,0,0,0,1.767,4.583,6.523,6.523,0,0,0,4.583,1.767c1.806.1,7.218.1,9.024,0a6.472,6.472,0,0,0,4.583-1.767,6.515,6.515,0,0,0,1.767-4.583c.1-1.806.1-7.213,0-9.019ZM19.461,19.62A3.691,3.691,0,0,1,17.382,21.7c-1.44.571-4.856.439-6.447.439s-5.012.127-6.447-.439A3.691,3.691,0,0,1,2.409,19.62c-.571-1.44-.439-4.856-.439-6.447s-.127-5.012.439-6.447A3.691,3.691,0,0,1,4.488,4.647c1.44-.571,4.856-.439,6.447-.439s5.012-.127,6.447.439a3.691,3.691,0,0,1,2.079,2.079c.571,1.44.439,4.856.439,6.447S20.032,18.185,19.461,19.62Z" transform="translate(0.005 -2.238)" fill="#fff"/>
</svg>
