<svg xmlns="http://www.w3.org/2000/svg" xmlns:xlink="http://www.w3.org/1999/xlink" width="150" height="50" viewBox="0 0 150 50">
  <defs>
    <clipPath id="clip-path">
      <rect id="Rectangle_4053" data-name="Rectangle 4053" width="150" height="50" transform="translate(0 -0.334)" fill="none"/>
    </clipPath>
    <clipPath id="clip-path-2">
      <rect id="Rectangle_4049" data-name="Rectangle 4049" width="150" height="50" fill="none"/>
    </clipPath>
  </defs>
  <g id="Group_5629" data-name="Group 5629" transform="translate(0 0.334)">
    <g id="Group_5208" data-name="Group 5208" clip-path="url(#clip-path)">
      <g id="Group_5643" data-name="Group 5643" transform="translate(-28.313 0.852)">
        <path id="Path_7683" data-name="Path 7683" d="M62.313,15.887h3.148V31.033h5.426v2.989H62.326Z" fill="#fff"/>
        <path id="Path_15973" data-name="Path 15973" d="M78.176,20.431a5.333,5.333,0,0,1,4.274,2.054V20.7h2.937V34.048H82.45V32.264a5.333,5.333,0,0,1-4.274,2.054,6.652,6.652,0,0,1-6.44-6.947,6.645,6.645,0,0,1,6.44-6.94M78.71,23.1a3.974,3.974,0,0,0-3.951,4.267,3.963,3.963,0,1,0,7.9,0A3.971,3.971,0,0,0,78.71,23.1" fill="#fff"/>
        <path id="Path_15974" data-name="Path 15974" d="M87.672,31.73l7-8.363h-6.9V20.7H98.465v2.351l-6.974,8.33h7.132v2.667H87.672Z" fill="#fff"/>
        <path id="Path_15975" data-name="Path 15975" d="M106.09,20.431a5.333,5.333,0,0,1,4.273,2.054V20.7H113.3V34.048h-2.937V32.264a5.333,5.333,0,0,1-4.273,2.054,6.647,6.647,0,0,1-6.434-6.947,6.641,6.641,0,0,1,6.434-6.94m.533,2.673a3.974,3.974,0,0,0-3.951,4.267,3.963,3.963,0,1,0,7.9,0,3.971,3.971,0,0,0-3.951-4.267" fill="#fff"/>
        <path id="Path_15976" data-name="Path 15976" d="M121.69,20.431a5.313,5.313,0,0,1,4.267,2.054V14.814h2.937V34.048h-2.937V32.264a5.313,5.313,0,0,1-4.267,2.054,6.652,6.652,0,0,1-6.44-6.947,6.645,6.645,0,0,1,6.44-6.94m.533,2.673a3.974,3.974,0,0,0-3.951,4.267,3.963,3.963,0,1,0,7.9,0,3.971,3.971,0,0,0-3.951-4.267" fill="#fff"/>
        <path id="Path_15977" data-name="Path 15977" d="M137.283,20.431a5.315,5.315,0,0,1,4.268,2.054V20.7h2.93V34.048h-2.943V32.264a5.316,5.316,0,0,1-4.268,2.054,6.652,6.652,0,0,1-6.44-6.947,6.656,6.656,0,0,1,6.453-6.94m.534,2.673a3.974,3.974,0,0,0-3.951,4.267,3.963,3.963,0,1,0,7.9,0,3.971,3.971,0,0,0-3.951-4.267" fill="#fff"/>
      </g>
    </g>
  </g>
</svg>
