<svg xmlns="http://www.w3.org/2000/svg" width="150" height="50" viewBox="0 0 150 50">
  <g id="Group_5198" data-name="Group 5198" transform="translate(0 0.334)">
    <g id="Group_5640" data-name="Group 5640">
      <path id="Path_7680" data-name="Path 7680" d="M18.644,29.5l-.019,0Z" fill="#fff"/>
      <g id="Group_5641" data-name="Group 5641">
        <g id="Group_5642" data-name="Group 5642" transform="translate(-19.645 -3.91)">
          <path id="Path_7681" data-name="Path 7681" d="M130.593,23.041h2.514V35.218h-.176a2.338,2.338,0,0,1-2.338-2.337Zm-21.2,12.389a6.607,6.607,0,0,1-4.719-.781,6.206,6.206,0,0,1-3.008-3.729,6.44,6.44,0,0,1,4.42-7.936,6.174,6.174,0,0,1,4.77.6c2.515,1.406,3.431,3.58,3.272,6.382L104,29.948a3.878,3.878,0,0,0,4.652,3.025,5.612,5.612,0,0,0,2.363-1.807l2.064,1.5a5.214,5.214,0,0,1-3.685,2.76m1.918-7.757A3.02,3.02,0,0,0,109.68,25.7c-2.178-1.218-4.322-.182-5.32,1.967Zm34.415.712a2.859,2.859,0,0,0-1.13-2.371,4,4,0,0,0-2.556-.807,3.729,3.729,0,0,0-3.736,3.972,3.739,3.739,0,0,0,3.713,3.873c1.5,0,2.309-.88,3.168-1.974v3.158a7,7,0,0,1-1.455.894,5.015,5.015,0,0,1-1.936.337c-3.618,0-6-3-6-6.462a6.059,6.059,0,0,1,1.664-4.395,6.167,6.167,0,0,1,4.623-1.817c3.593,0,6.163,2.063,6.163,5.79v6.635h-.176a2.337,2.337,0,0,1-2.338-2.337ZM132.954,21.6a1.412,1.412,0,0,1-1.1.431,1.44,1.44,0,0,1-1.48-1.492,1.4,1.4,0,0,1,1.48-1.469,1.44,1.44,0,0,1,1.481,1.469,1.54,1.54,0,0,1-.377,1.061m-7.1,12.014a5.806,5.806,0,0,1-4.44,1.856,5.923,5.923,0,0,1-4.627-1.972,6.759,6.759,0,0,1-1.66-4.664,5.93,5.93,0,0,1,5.88-6.038,7.05,7.05,0,0,1,3.54.892v2.722a6,6,0,0,0-3.168-1.2,3.584,3.584,0,0,0-3.738,3.9,3.694,3.694,0,0,0,3.786,3.947,3.3,3.3,0,0,0,2.6-1.182,5.151,5.151,0,0,0,1.04-3.485V19.914a2.338,2.338,0,0,1,2.339-2.337h.175v11.2a6.813,6.813,0,0,1-1.723,4.829M98.634,33.7a5.632,5.632,0,0,1-4.15,1.767,6.683,6.683,0,0,1-3.529-.92v-2.7a6,6,0,0,0,3.168,1.2,3.583,3.583,0,0,0,3.737-3.9,3.66,3.66,0,0,0-3.786-3.948,3.244,3.244,0,0,0-2.558,1.131,5.207,5.207,0,0,0-1.078,3.529V40.509h-.176a2.338,2.338,0,0,1-2.338-2.337v-8.7c0-3.693,2.258-6.675,6.139-6.675a5.956,5.956,0,0,1,4.652,1.971,6.7,6.7,0,0,1,1.659,4.664,5.862,5.862,0,0,1-1.74,4.272" fill="#fff"/>
          <path id="Path_7682" data-name="Path 7682" d="M58.11,26.3a3.507,3.507,0,0,0-2.654-1.089,3.615,3.615,0,0,0-3.7,3.923,3.7,3.7,0,1,0,7.4,0A3.922,3.922,0,0,0,58.11,26.3m24.731,0a3.505,3.505,0,0,0-2.654-1.089,3.614,3.614,0,0,0-3.7,3.923,3.7,3.7,0,1,0,7.4,0A3.921,3.921,0,0,0,82.841,26.3m1.815,7.382a6.445,6.445,0,0,1-8.913,0,6.033,6.033,0,0,1-1.868-4.548,6.343,6.343,0,0,1,10.769-4.537,6.031,6.031,0,0,1,1.879,4.537,6.035,6.035,0,0,1-1.867,4.548M71.677,25.971c-.367.618-.654,1.062-.854,1.33a3.474,3.474,0,0,1-.658.685,3.291,3.291,0,0,1,2.4,3.578v3.654h-.178a2.337,2.337,0,0,1-2.337-2.337V31.812c0-1.167-.523-1.96-1.761-1.96H66v5.366h-.177a2.336,2.336,0,0,1-2.337-2.337V19.914a2.337,2.337,0,0,1,2.337-2.338H66v9.837h.742a1.75,1.75,0,0,0,1.662-.808l2.112-3.563,2.864,0ZM59.924,33.678a6.444,6.444,0,0,1-8.912,0,6.029,6.029,0,0,1-1.868-4.548,6.341,6.341,0,0,1,10.767-4.537,6.022,6.022,0,0,1,1.881,4.537,6.033,6.033,0,0,1-1.868,4.548m-14.6,1.54c-2.458,0-3.679-1.673-3.679-4.008V22.348a2.337,2.337,0,0,1,2.337-2.337h.177v3.03h4.247v2.415H44.159v6.033c0,1.026.459,1.315,1.438,1.315h2.809v2.414Z" fill="#fff"/>
        </g>
        <rect id="Rectangle_4048" data-name="Rectangle 4048" width="150" height="50" transform="translate(0 -0.334)" fill="none"/>
      </g>
    </g>
  </g>
</svg>
