<svg xmlns="http://www.w3.org/2000/svg" xmlns:xlink="http://www.w3.org/1999/xlink" width="150" height="50" viewBox="0 0 150 50">
  <defs>
    <clipPath id="clip-path">
      <rect id="Rectangle_4056" data-name="Rectangle 4056" width="150" height="50" transform="translate(0 -0.334)" fill="none"/>
    </clipPath>
  </defs>
  <g id="Group_5632" data-name="Group 5632" transform="translate(0 0.334)">
    <g id="Group_5215" data-name="Group 5215">
      <g id="Group_5214" data-name="Group 5214" clip-path="url(#clip-path)">
        <path id="Path_7708" data-name="Path 7708" d="M112.168,18.228c5.755-.446,9.6,1.462,9.86,7.073.274,5.878-2.763,8.348-8.466,8.348l-.945,0-.448-.019Zm-3.68,18.833c5.069.045,10.814.271,14.373-3.056,2.108-1.969,3.277-6.1,2.761-10.12-1.216-9.463-10.035-9.268-17.135-9.1ZM77.665,18.228c5.756-.446,9.6,1.462,9.861,7.073.275,5.879-2.763,8.348-8.466,8.348l-.946,0-.447-.019ZM73.986,37.061c5.069.045,10.813.271,14.372-3.056,3.761-3.514,4.773-14.533-2.586-17.9-3.444-1.575-7.711-1.421-11.788-1.326ZM67.2,28.017c0,4.253-.822,5.631-6.151,5.632v3.408c11.422.045,9.936-6.55,9.936-14.239v-8c-.915-.121-2.774-.05-3.786-.046Zm34.246,9.018,3.692.031.074-.422L105.2,14.775l-3.754.009ZM95.263,32a2.22,2.22,0,0,1,1.343,4.231A2.22,2.22,0,1,1,95.263,32" transform="translate(-18.046 -1.061)" fill="#fff"/>
      </g>
    </g>
  </g>
</svg>
