<svg xmlns="http://www.w3.org/2000/svg" xmlns:xlink="http://www.w3.org/1999/xlink" width="150" height="50" viewBox="0 0 150 50">
  <defs>
    <clipPath id="clip-path">
      <rect id="Rectangle_4055" data-name="Rectangle 4055" width="150" height="50" transform="translate(0 -0.334)" fill="none"/>
    </clipPath>
  </defs>
  <g id="Group_5631" data-name="Group 5631" transform="translate(0 0.334)">
    <g id="Group_5212" data-name="Group 5212" clip-path="url(#clip-path)">
      <g id="Group_5647" data-name="Group 5647" transform="translate(-12.172 0.369)">
        <path id="Path_7707" data-name="Path 7707" d="M60.1,21.851a9.926,9.926,0,1,1-9.926,9.926V16.387a6.7,6.7,0,0,1,4.66-2.377V30.9c0,4.134,1.615,7.622,4.8,7.622,3.726,0,5.918-3.02,5.918-6.746a6.752,6.752,0,0,0-8.676-6.465,8.936,8.936,0,0,1,2.466-3.433q.375-.028.757-.028m38.205,0a9.926,9.926,0,1,1-9.927,9.926V16.387a6.7,6.7,0,0,1,4.66-2.377V30.9c0,4.134,1.615,7.622,4.8,7.622,3.725,0,5.917-3.02,5.917-6.746a6.751,6.751,0,0,0-8.675-6.465,8.928,8.928,0,0,1,2.465-3.433q.375-.028.758-.028m20.77,2.335a6.707,6.707,0,0,1,4.661-2.377V39.326a6.7,6.7,0,0,1-4.661,2.378Zm2.33-10.03a2.335,2.335,0,1,1-2.335,2.335,2.335,2.335,0,0,1,2.335-2.335m-10.087-3.483a6.7,6.7,0,0,1,4.66-2.377v31.03a6.7,6.7,0,0,1-4.66,2.378ZM80.869,24.186a6.7,6.7,0,0,1,4.66-2.377V39.326a6.7,6.7,0,0,1-4.66,2.378Zm2.33-10.03a2.335,2.335,0,1,1-2.336,2.335A2.334,2.334,0,0,1,83.2,14.156M73.111,10.673A6.7,6.7,0,0,1,77.771,8.3v31.03a6.7,6.7,0,0,1-4.66,2.378Z" fill="#fff"/>
      </g>
    </g>
  </g>
</svg>
