<svg xmlns="http://www.w3.org/2000/svg" width="170" height="50.565" viewBox="0 0 170 50.565">
  <g id="Group_2466" data-name="Group 2466" transform="translate(-2788.901 249.201)">
    <g id="Group_2424" data-name="Group 2424" transform="translate(2853.459 -231.219)" style="mix-blend-mode: normal;isolation: isolate">
      <path id="Path_7377" data-name="Path 7377" d="M2954.931-185.742V-175.5h-4.19v-25.629h7.24q4.961,0,7.345,1.858a6.673,6.673,0,0,1,2.384,5.61q0,4.786-4.978,6.819l7.239,11.342H2965.2l-6.136-10.237Zm0-3.471h2.91a6.646,6.646,0,0,0,4.242-1.087,3.943,3.943,0,0,0,1.315-3.226,3.472,3.472,0,0,0-1.42-3.12,7.784,7.784,0,0,0-4.277-.947h-2.77Z" transform="translate(-2950.741 202.325)" fill="#fff"/>
      <path id="Path_7378" data-name="Path 7378" d="M3017.237-166.629l-.824-2.7h-.14a7.956,7.956,0,0,1-2.822,2.411,8.939,8.939,0,0,1-3.647.639,6.169,6.169,0,0,1-4.461-1.543,5.77,5.77,0,0,1-1.6-4.365,5.125,5.125,0,0,1,2.227-4.522q2.227-1.525,6.784-1.665l3.348-.105v-1.034a3.923,3.923,0,0,0-.867-2.779,3.542,3.542,0,0,0-2.692-.92,9.306,9.306,0,0,0-2.857.438,21.617,21.617,0,0,0-2.629,1.034l-1.332-2.945a14.347,14.347,0,0,1,3.453-1.253,15.911,15.911,0,0,1,3.541-.429,8.385,8.385,0,0,1,5.584,1.613q1.884,1.613,1.884,5.066v13.06Zm-6.136-2.8a5.1,5.1,0,0,0,3.6-1.254,4.542,4.542,0,0,0,1.358-3.514v-1.683l-2.489.105a8.512,8.512,0,0,0-4.233.973,2.954,2.954,0,0,0-1.324,2.655,2.594,2.594,0,0,0,.771,2.008A3.316,3.316,0,0,0,3011.1-169.433Z" transform="translate(-2982.598 193.449)" fill="#fff"/>
      <path id="Path_7379" data-name="Path 7379" d="M3076.431-166.629h-4.138v-11.92a5.218,5.218,0,0,0-.9-3.348,3.489,3.489,0,0,0-2.867-1.1,4.556,4.556,0,0,0-3.821,1.543q-1.21,1.543-1.21,5.171v9.659h-4.119v-19.388h3.226l.578,2.542h.21a5.737,5.737,0,0,1,2.49-2.139,8.346,8.346,0,0,1,3.576-.754q6.977,0,6.978,7.1Z" transform="translate(-3016.04 193.449)" fill="#fff"/>
      <path id="Path_7380" data-name="Path 7380" d="M3120.317-175.579a10.015,10.015,0,0,0,3.015-.473v3.1a8.3,8.3,0,0,1-1.761.5,12.143,12.143,0,0,1-2.235.2q-5.854,0-5.855-6.171v-10.448h-2.647v-1.823l2.84-1.508,1.4-4.1h2.542v4.312h5.522v3.12h-5.522v10.377a2.911,2.911,0,0,0,.745,2.2A2.716,2.716,0,0,0,3120.317-175.579Z" transform="translate(-3046.972 199.419)" fill="#fff"/>
      <path id="Path_7381" data-name="Path 7381" d="M3161.949-166.629l-.823-2.7h-.141a7.943,7.943,0,0,1-2.822,2.411,8.934,8.934,0,0,1-3.646.639,6.168,6.168,0,0,1-4.461-1.543,5.771,5.771,0,0,1-1.6-4.365,5.124,5.124,0,0,1,2.226-4.522q2.227-1.525,6.784-1.665l3.349-.105v-1.034a3.921,3.921,0,0,0-.868-2.779,3.54,3.54,0,0,0-2.691-.92,9.309,9.309,0,0,0-2.857.438,21.539,21.539,0,0,0-2.629,1.034l-1.333-2.945a14.367,14.367,0,0,1,3.453-1.253,15.916,15.916,0,0,1,3.542-.429,8.385,8.385,0,0,1,5.583,1.613q1.885,1.613,1.885,5.066v13.06Zm-6.135-2.8a5.1,5.1,0,0,0,3.6-1.254,4.542,4.542,0,0,0,1.359-3.514v-1.683l-2.49.105a8.511,8.511,0,0,0-4.233.973,2.954,2.954,0,0,0-1.323,2.655,2.592,2.592,0,0,0,.771,2.008A3.319,3.319,0,0,0,3155.814-169.433Z" transform="translate(-3069.584 193.449)" fill="#fff"/>
      <path id="Path_7382" data-name="Path 7382" d="M3203.471-201.825a2.28,2.28,0,0,1,.6-1.7,2.356,2.356,0,0,1,1.727-.6,2.306,2.306,0,0,1,1.692.6,2.282,2.282,0,0,1,.6,1.7,2.241,2.241,0,0,1-.6,1.657,2.288,2.288,0,0,1-1.692.6,2.336,2.336,0,0,1-1.727-.6A2.239,2.239,0,0,1,3203.471-201.825Zm4.365,24.524h-4.119v-19.388h4.119Z" transform="translate(-3102.657 204.121)" fill="#fff"/>
    </g>
    <path id="Path_7383" data-name="Path 7383" d="M2834.187-243.922a18.074,18.074,0,0,0-25.532,0,17.824,17.824,0,0,0-4.986,9.49,17.836,17.836,0,0,0-9.489,4.984,18.074,18.074,0,0,0,0,25.532,18,18,0,0,0,12.765,5.279,18,18,0,0,0,12.765-5.279,17.839,17.839,0,0,0,4.986-9.488,17.844,17.844,0,0,0,9.49-4.987A18.074,18.074,0,0,0,2834.187-243.922Zm-11.058,14.474a2.418,2.418,0,0,1-3.416,0,2.419,2.419,0,0,1,0-3.418,2.411,2.411,0,0,1,1.71-.707,2.428,2.428,0,0,1,.462.044,2.407,2.407,0,0,1,1.248.663h0A2.42,2.42,0,0,1,2823.129-229.447Zm-17.891,14.474a2.42,2.42,0,0,1,0-3.417,2.4,2.4,0,0,1,1.71-.708,2.4,2.4,0,0,1,1.708.706h0a2.421,2.421,0,0,1,0,3.417,2.4,2.4,0,0,1-1.708.708,2.436,2.436,0,0,1-.475-.046A2.4,2.4,0,0,1,2805.238-214.973Zm-8.8-12.218a14.683,14.683,0,0,1,6.931-3.918c0,.313.01.625.026.936.005.088.014.176.02.264.016.23.033.46.058.689.013.117.029.233.043.35.026.2.052.4.084.6.02.124.042.248.064.372q.052.285.113.568c.026.124.055.248.084.371.045.19.094.379.145.567.032.118.063.236.1.353.059.2.124.4.19.6.033.1.065.2.1.3.092.263.192.523.3.781.014.034.026.069.04.1.121.292.251.58.386.865.041.085.086.169.129.254.1.2.2.4.3.591.057.1.116.206.176.31l.042.075a5.572,5.572,0,0,0-2.785,1.516,5.613,5.613,0,0,0-.961,6.636l-6.65,6.65A14.885,14.885,0,0,1,2796.435-227.191Zm21.019,21.019a14.763,14.763,0,0,1-10.508,4.353,14.75,14.75,0,0,1-9.321-3.284l6.646-6.647.015.007a5.633,5.633,0,0,0,.571.266c.054.022.11.039.165.059.144.053.29.1.438.141.069.019.139.036.21.052.145.034.291.061.439.083.065.01.13.022.2.029a5.69,5.69,0,0,0,.642.04,5.569,5.569,0,0,0,3.964-1.643,5.563,5.563,0,0,0,1.23-1.854,5.541,5.541,0,0,0,.308-1.04c.034-.177.061-.355.077-.534s.026-.358.026-.538a5.59,5.59,0,0,0-1.64-3.965h0a14.922,14.922,0,0,1-2.1-2.627,14.757,14.757,0,0,1-2.258-7.881,14.993,14.993,0,0,1,.1-1.694h0a14.7,14.7,0,0,1,4.255-8.815,14.885,14.885,0,0,1,19.832-1.068l-6.647,6.647-.038-.018c-.043-.023-.086-.043-.13-.064-.109-.054-.219-.106-.331-.153-.055-.023-.11-.044-.166-.065-.1-.04-.209-.077-.316-.111-.057-.018-.113-.035-.169-.051-.115-.033-.231-.06-.347-.085-.047-.01-.093-.022-.14-.031-.164-.031-.329-.055-.494-.071l-.046,0c-.15-.013-.3-.02-.451-.022-.052,0-.1,0-.156,0-.116,0-.23.007-.344.016-.058,0-.115.01-.174.017-.112.013-.224.029-.335.048-.055.01-.11.018-.164.029-.131.027-.26.059-.388.095-.033.009-.066.016-.1.026-.16.048-.319.1-.476.166-.038.016-.075.034-.113.05-.117.05-.233.1-.347.161-.053.027-.1.055-.155.084q-.15.082-.3.174c-.052.033-.1.066-.154.1-.1.067-.2.139-.291.213-.043.034-.087.066-.129.1-.135.112-.266.229-.393.355a5.615,5.615,0,0,0,0,7.931,15.055,15.055,0,0,1,1.13,1.264,14.775,14.775,0,0,1,3.124,10.941A14.7,14.7,0,0,1,2817.454-206.172ZM2825-216.726c0-.313-.01-.625-.026-.936,0-.085-.013-.17-.019-.254-.015-.234-.033-.467-.058-.7-.012-.116-.028-.231-.042-.347-.025-.2-.052-.4-.084-.6-.02-.124-.042-.247-.064-.37-.035-.191-.072-.381-.113-.57q-.039-.186-.083-.371c-.046-.19-.094-.378-.145-.566-.032-.118-.064-.237-.1-.354-.059-.2-.123-.4-.189-.6-.034-.1-.065-.2-.1-.306-.092-.26-.191-.519-.295-.774-.015-.036-.027-.073-.042-.109q-.181-.437-.386-.865c-.04-.085-.085-.169-.128-.254-.1-.2-.2-.4-.3-.591-.057-.1-.117-.207-.176-.31l-.045-.081a5.564,5.564,0,0,0,2.784-1.511,5.615,5.615,0,0,0,.964-6.637l6.65-6.65a14.884,14.884,0,0,1-1.07,19.83A14.7,14.7,0,0,1,2825-216.726Z" transform="translate(0 0)" fill="#fff"/>
  </g>
</svg>
