<svg xmlns="http://www.w3.org/2000/svg" width="135.49" height="40.301" viewBox="0 0 135.49 40.301">
  <g id="Group_2470" data-name="Group 2470" transform="translate(-2788.901 249.201)">
    <g id="Group_2424" data-name="Group 2424" transform="translate(2840.354 -234.869)" style="isolation: isolate">
      <path id="Path_7377" data-name="Path 7377" d="M2954.08-188.866v8.159h-3.339v-20.426h5.77q3.953,0,5.854,1.481a5.317,5.317,0,0,1,1.9,4.471q0,3.814-3.968,5.435l5.77,9.039h-3.8l-4.89-8.159Zm0-2.766h2.32a5.3,5.3,0,0,0,3.381-.866,3.143,3.143,0,0,0,1.048-2.571,2.767,2.767,0,0,0-1.132-2.487,6.2,6.2,0,0,0-3.409-.754h-2.207Z" transform="translate(-2950.741 202.083)" fill="#0b69fd"/>
      <path id="Path_7378" data-name="Path 7378" d="M3014.5-170.635l-.656-2.151h-.111a6.341,6.341,0,0,1-2.249,1.921,7.128,7.128,0,0,1-2.907.51,4.916,4.916,0,0,1-3.555-1.229,4.6,4.6,0,0,1-1.279-3.479,4.085,4.085,0,0,1,1.774-3.6A10.23,10.23,0,0,1,3010.92-180l2.669-.084v-.824a3.126,3.126,0,0,0-.691-2.215,2.822,2.822,0,0,0-2.145-.733,7.419,7.419,0,0,0-2.277.349,17.269,17.269,0,0,0-2.1.824l-1.062-2.347a11.433,11.433,0,0,1,2.752-1,12.687,12.687,0,0,1,2.823-.342,6.68,6.68,0,0,1,4.45,1.285,5.032,5.032,0,0,1,1.5,4.038v10.409Zm-4.89-2.235a4.066,4.066,0,0,0,2.872-1,3.62,3.62,0,0,0,1.082-2.8v-1.341l-1.983.084a6.786,6.786,0,0,0-3.375.775,2.354,2.354,0,0,0-1.054,2.116,2.068,2.068,0,0,0,.614,1.6A2.645,2.645,0,0,0,3009.607-172.871Z" transform="translate(-2986.889 192.011)" fill="#0b69fd"/>
      <path id="Path_7379" data-name="Path 7379" d="M3072.969-170.635h-3.3v-9.5a4.16,4.16,0,0,0-.719-2.668,2.783,2.783,0,0,0-2.286-.88,3.632,3.632,0,0,0-3.045,1.229,6.788,6.788,0,0,0-.965,4.122v7.7h-3.282v-15.452h2.571l.461,2.026h.167a4.571,4.571,0,0,1,1.984-1.7,6.65,6.65,0,0,1,2.851-.6q5.561,0,5.561,5.658Z" transform="translate(-3024.837 192.011)" fill="#0b69fd"/>
      <path id="Path_7380" data-name="Path 7380" d="M3118.392-179.785a7.978,7.978,0,0,0,2.4-.377v2.473a6.612,6.612,0,0,1-1.4.4,9.676,9.676,0,0,1-1.781.161q-4.666,0-4.667-4.918v-8.327h-2.109v-1.453l2.262-1.2,1.118-3.269h2.025v3.437h4.4v2.487h-4.4v8.271a2.319,2.319,0,0,0,.594,1.754A2.166,2.166,0,0,0,3118.392-179.785Z" transform="translate(-3059.937 198.786)" fill="#0b69fd"/>
      <path id="Path_7381" data-name="Path 7381" d="M3159.209-170.635l-.657-2.151h-.112a6.329,6.329,0,0,1-2.249,1.921,7.123,7.123,0,0,1-2.906.51,4.916,4.916,0,0,1-3.555-1.229,4.6,4.6,0,0,1-1.28-3.479,4.085,4.085,0,0,1,1.775-3.6,10.23,10.23,0,0,1,5.406-1.327l2.669-.084v-.824a3.129,3.129,0,0,0-.691-2.215,2.824,2.824,0,0,0-2.145-.733,7.422,7.422,0,0,0-2.277.349,17.125,17.125,0,0,0-2.1.824l-1.062-2.347a11.44,11.44,0,0,1,2.752-1,12.684,12.684,0,0,1,2.822-.342,6.685,6.685,0,0,1,4.45,1.285,5.032,5.032,0,0,1,1.5,4.038v10.409Zm-4.89-2.235a4.069,4.069,0,0,0,2.872-1,3.62,3.62,0,0,0,1.083-2.8v-1.341l-1.985.084a6.782,6.782,0,0,0-3.374.775,2.356,2.356,0,0,0-1.054,2.116,2.065,2.065,0,0,0,.614,1.6A2.643,2.643,0,0,0,3154.319-172.871Z" transform="translate(-3085.593 192.011)" fill="#0b69fd"/>
      <path id="Path_7382" data-name="Path 7382" d="M3203.471-202.291a1.818,1.818,0,0,1,.482-1.355,1.876,1.876,0,0,1,1.376-.475,1.84,1.84,0,0,1,1.348.475,1.82,1.82,0,0,1,.482,1.355,1.787,1.787,0,0,1-.482,1.32,1.825,1.825,0,0,1-1.348.482,1.861,1.861,0,0,1-1.376-.482A1.785,1.785,0,0,1,3203.471-202.291Zm3.478,19.546h-3.283V-198.2h3.283Z" transform="translate(-3123.122 204.121)" fill="#0b69fd"/>
    </g>
    <path id="Path_7383" data-name="Path 7383" d="M2824.994-244.993a14.406,14.406,0,0,0-20.35,0,14.2,14.2,0,0,0-3.974,7.564,14.215,14.215,0,0,0-7.563,3.972,14.4,14.4,0,0,0,0,20.349,14.344,14.344,0,0,0,10.174,4.207,14.345,14.345,0,0,0,10.174-4.207,14.222,14.222,0,0,0,3.974-7.562,14.224,14.224,0,0,0,7.563-3.974A14.406,14.406,0,0,0,2824.994-244.993Zm-8.814,11.536a1.927,1.927,0,0,1-2.722,0,1.928,1.928,0,0,1,0-2.724,1.921,1.921,0,0,1,1.363-.564,1.934,1.934,0,0,1,.368.035,1.92,1.92,0,0,1,.995.528h0A1.929,1.929,0,0,1,2816.18-233.457Zm-14.259,11.536a1.928,1.928,0,0,1,0-2.724,1.916,1.916,0,0,1,1.363-.564,1.915,1.915,0,0,1,1.362.563h0a1.929,1.929,0,0,1,0,2.724,1.914,1.914,0,0,1-1.362.564,1.94,1.94,0,0,1-.378-.037A1.916,1.916,0,0,1,2801.921-221.921Zm-7.016-9.738a11.705,11.705,0,0,1,5.524-3.123q0,.374.021.746c0,.07.011.14.015.21.013.183.027.367.046.549.01.093.023.186.034.279.02.159.042.318.067.475.015.1.034.2.052.3.028.152.057.3.09.453q.031.148.067.3c.036.151.075.3.116.452.026.094.05.188.078.281.047.16.1.318.152.477.026.08.052.162.08.242.073.209.153.416.236.622.011.027.021.055.032.082.1.232.2.462.307.689.033.068.069.135.1.2.078.158.158.315.242.471.045.083.093.164.14.247l.034.06a4.439,4.439,0,0,0-2.22,1.208,4.475,4.475,0,0,0-.766,5.289l-5.3,5.3A11.863,11.863,0,0,1,2794.906-231.659Zm16.752,16.752a11.767,11.767,0,0,1-8.375,3.469,11.756,11.756,0,0,1-7.429-2.617l5.3-5.3.012.005a4.462,4.462,0,0,0,.455.212c.043.017.087.031.131.047.115.042.231.08.349.112.055.015.111.029.167.042.115.027.232.048.35.066.052.008.1.017.156.023a4.533,4.533,0,0,0,.511.032,4.439,4.439,0,0,0,3.16-1.309,4.436,4.436,0,0,0,.98-1.478,4.426,4.426,0,0,0,.245-.829c.027-.141.048-.283.062-.425s.021-.285.021-.429a4.457,4.457,0,0,0-1.307-3.16h0a11.9,11.9,0,0,1-1.67-2.094,11.767,11.767,0,0,1-1.8-6.281,12.029,12.029,0,0,1,.078-1.35h0a11.713,11.713,0,0,1,3.392-7.026,11.863,11.863,0,0,1,15.806-.851l-5.3,5.3-.03-.014c-.034-.018-.069-.034-.1-.051-.086-.043-.174-.085-.263-.122l-.132-.052c-.083-.032-.167-.061-.251-.088l-.135-.041c-.091-.026-.185-.048-.277-.068-.037-.008-.074-.017-.111-.024-.131-.024-.262-.044-.394-.057l-.037,0q-.18-.016-.359-.017c-.041,0-.083,0-.125,0-.092,0-.183.006-.274.013l-.139.013c-.089.01-.178.023-.267.038-.044.008-.088.014-.13.023-.1.021-.208.047-.31.075-.026.007-.053.013-.078.02-.128.038-.254.083-.379.132l-.09.04c-.094.04-.186.082-.277.128-.042.021-.083.044-.123.067q-.119.065-.235.139c-.042.026-.083.053-.123.08-.079.054-.156.111-.232.17-.034.027-.069.052-.1.08-.108.089-.212.182-.313.283a4.475,4.475,0,0,0,0,6.321,12.027,12.027,0,0,1,.9,1.007,11.776,11.776,0,0,1,2.49,8.72A11.718,11.718,0,0,1,2811.658-214.907Zm6.015-8.412c0-.25-.008-.5-.021-.746,0-.068-.011-.135-.015-.2-.013-.186-.026-.372-.046-.557-.01-.092-.023-.184-.034-.276-.02-.16-.041-.32-.066-.479q-.025-.148-.052-.3c-.028-.152-.057-.3-.09-.454-.021-.1-.043-.2-.066-.3-.037-.151-.075-.3-.115-.451-.026-.094-.051-.189-.079-.282-.047-.16-.1-.317-.15-.475-.028-.081-.052-.163-.081-.244-.073-.208-.152-.413-.235-.617-.012-.029-.021-.058-.033-.087q-.145-.349-.308-.689c-.032-.068-.068-.134-.1-.2-.079-.158-.158-.316-.243-.471-.045-.083-.093-.165-.141-.247l-.036-.065a4.433,4.433,0,0,0,2.219-1.2,4.475,4.475,0,0,0,.769-5.289l5.3-5.3a11.862,11.862,0,0,1-.853,15.8A11.713,11.713,0,0,1,2817.673-223.319Z" transform="translate(0 0)" fill="#0b69fd"/>
  </g>
</svg>
