<svg xmlns="http://www.w3.org/2000/svg" width="59.951" height="59.952" viewBox="0 0 59.951 59.952"><defs><style>.a{fill:none;stroke:#000;stroke-width:4px;fill-rule:evenodd;}</style></defs><g transform="translate(-151.52 -346)"><g transform="translate(153.52 362.33)"><path class="a" d="M-24.332-19.633a16.455,16.455,0,0,0,5.756-2.093A16.48,16.48,0,0,1-21.1-18.456L-25.364-14.2c-.006.006-.012.012-.017.012a.92.92,0,0,1-.075.075l-4.174,4.18a16.6,16.6,0,0,1-11.716,4.84h-.012A16.488,16.488,0,0,1-57.878-21.523v-.1h-.012A16.525,16.525,0,0,1-53.484-32.89c.139-.157.284-.307.435-.458l8.527-8.527c.151-.151.3-.3.458-.435a15.816,15.816,0,0,1,3.159-2.3,16.461,16.461,0,0,1,8.087-2.1l.023.017h.139a16.338,16.338,0,0,1,6.22,1.252,16.529,16.529,0,0,1,8.9,8.892l-5.026,5.026c-.081.081-.162.157-.243.232s-.139.128-.214.186a6.372,6.372,0,0,1-2.719,1.287l-.005.006a6.272,6.272,0,0,1-.806.11,6.341,6.341,0,0,0,0-1.049,6.293,6.293,0,0,0-6.266-5.71c-.15,0-.3.006-.452.017a6.215,6.215,0,0,0-1.954.464,6.317,6.317,0,0,0-2.041,1.368l-8.527,8.527a6.3,6.3,0,0,0-1.832,4.452h-.012a6.3,6.3,0,0,0,1.843,4.446,6.241,6.241,0,0,0,3.867,1.809,6.429,6.429,0,0,0,4.672-1.478l.006-.006c.122-.1.238-.209.354-.325l3.507-3.507a.793.793,0,0,0,.1.046,16.338,16.338,0,0,0,6.26,1.212v.017c.2,0,.394,0,.591-.012.093,0,.185-.006.278-.012.145-.006.29-.017.435-.023.464-.041.928-.093,1.385-.168" transform="translate(57.89 46.71)"/></g><g transform="translate(169.125 348)"><path class="a" d="M-29.254-11.987A16.577,16.577,0,0,1-34.094-.272l-8.527,8.539a16.5,16.5,0,0,1-3.269,2.527,16.454,16.454,0,0,1-5.756,2.093,16.668,16.668,0,0,1-2.69.214v-.017a16.338,16.338,0,0,1-6.26-1.212.83.83,0,0,1-.1-.046,16.39,16.39,0,0,1-8.887-8.858c0-.017-.012-.029-.012-.041l5.021-5.02a6.309,6.309,0,0,1,2.04-1.368,6.215,6.215,0,0,1,1.954-.464c-.011.145-.017.29-.017.435v.052h-.023a6.294,6.294,0,0,0,4.284,5.953.415.415,0,0,0,.093.029,5.911,5.911,0,0,0,1.333.272,6.341,6.341,0,0,0,1.049,0,6.271,6.271,0,0,0,.806-.11l.005-.006a6.372,6.372,0,0,0,2.719-1.287c.075-.058.145-.122.214-.186s.162-.151.243-.232l8.527-8.527c.11-.11.22-.22.319-.336a6.431,6.431,0,0,0,1.489-4.69,6.29,6.29,0,0,0-6.255-5.71v.023a6.236,6.236,0,0,0-4.452,1.82l-3.5,3.5a16.336,16.336,0,0,0-6.22-1.252h-.139l-.024-.017a16.461,16.461,0,0,0-8.087,2.1,11.329,11.329,0,0,1,2.18-3.067l8.527-8.527c.139-.139.278-.272.423-.406h.006A16.52,16.52,0,0,1-45.8-28.52h.012a16.527,16.527,0,0,1,11.692,4.84,16.467,16.467,0,0,1,4.829,11.692Z" transform="translate(69.6 28.52)"/></g></g></svg>