<svg xmlns="http://www.w3.org/2000/svg" xmlns:xlink="http://www.w3.org/1999/xlink" width="52" height="52" viewBox="0 0 52 52">
  <defs>
    <clipPath id="clip-path">
      <rect id="Rectangle_3604" data-name="Rectangle 3604" width="52" height="52" rx="12" transform="translate(697 3456)" fill="#6b7efc"/>
    </clipPath>
  </defs>
  <g id="Paket_Rantai_ERP" data-name="Paket Rantai ERP" transform="translate(-697 -3456)" clip-path="url(#clip-path)">
    <rect id="Rectangle_3602" data-name="Rectangle 3602" width="52" height="52" transform="translate(697 3456)" fill="#3834ea"/>
    <ellipse id="Ellipse_411" data-name="Ellipse 411" cx="25" cy="25.5" rx="25" ry="25.5" transform="translate(674 3480)" fill="#6b7efc"/>
    <rect id="Rectangle_3603" data-name="Rectangle 3603" width="52" height="52" rx="12" transform="translate(720 3430)" fill="#6b7efc"/>
    <path id="Path_7423" data-name="Path 7423" d="M2819.573-245.625a12.242,12.242,0,0,0-17.294,0,12.075,12.075,0,0,0-3.377,6.428,12.083,12.083,0,0,0-6.427,3.376,12.243,12.243,0,0,0,0,17.294,12.192,12.192,0,0,0,8.647,3.576,12.19,12.19,0,0,0,8.646-3.576,12.083,12.083,0,0,0,3.377-6.427,12.089,12.089,0,0,0,6.427-3.378A12.242,12.242,0,0,0,2819.573-245.625Zm-7.49,9.8a1.638,1.638,0,0,1-2.314,0,1.639,1.639,0,0,1,0-2.315,1.632,1.632,0,0,1,1.158-.479,1.639,1.639,0,0,1,.312.03,1.63,1.63,0,0,1,.845.449h0A1.639,1.639,0,0,1,2812.083-235.821Zm-12.118,9.8a1.639,1.639,0,0,1,0-2.315,1.629,1.629,0,0,1,1.159-.479,1.626,1.626,0,0,1,1.156.479h0a1.64,1.64,0,0,1,0,2.315,1.627,1.627,0,0,1-1.157.48,1.647,1.647,0,0,1-.322-.031A1.627,1.627,0,0,1,2799.964-226.017ZM2794-234.292a9.947,9.947,0,0,1,4.694-2.654q0,.318.018.634c0,.06.009.119.013.179.011.156.023.312.039.467.009.079.02.158.03.237.017.135.035.27.057.4.013.084.029.168.044.252.023.129.048.257.076.385q.027.126.057.252c.031.129.064.256.1.384.021.08.043.16.066.239.04.136.084.27.129.4.022.068.044.138.068.206q.094.267.2.529c.009.023.017.046.027.069.082.2.169.393.261.586.028.058.059.115.087.172.067.134.135.268.206.4.038.071.079.14.119.21l.029.051a3.775,3.775,0,0,0-1.886,1.027,3.8,3.8,0,0,0-.651,4.495l-4.5,4.5A10.082,10.082,0,0,1,2794-234.292Zm14.237,14.237a10,10,0,0,1-7.117,2.948,9.991,9.991,0,0,1-6.314-2.224l4.5-4.5.01,0a3.782,3.782,0,0,0,.386.18c.037.015.074.026.112.04.1.036.2.068.3.1l.142.035c.1.023.2.041.3.056.044.007.088.015.133.02a3.853,3.853,0,0,0,.435.027,3.773,3.773,0,0,0,2.685-1.113,3.762,3.762,0,0,0,.833-1.256,3.765,3.765,0,0,0,.208-.7,3.627,3.627,0,0,0,.053-.362q.017-.182.017-.364a3.786,3.786,0,0,0-1.111-2.686h0a10.1,10.1,0,0,1-1.419-1.78,10,10,0,0,1-1.529-5.338,10.258,10.258,0,0,1,.066-1.147h0a9.958,9.958,0,0,1,2.883-5.971,10.082,10.082,0,0,1,13.433-.724l-4.5,4.5-.025-.012c-.029-.016-.059-.029-.088-.043-.074-.037-.148-.072-.224-.1l-.112-.044c-.071-.027-.142-.052-.214-.075l-.115-.035c-.078-.022-.156-.041-.236-.058-.031-.007-.063-.015-.095-.021-.111-.021-.223-.037-.334-.048l-.031,0c-.1-.009-.2-.014-.305-.015-.035,0-.071,0-.106,0-.079,0-.156,0-.233.011l-.118.011c-.075.009-.152.02-.227.033-.037.006-.074.012-.111.02-.089.018-.177.04-.263.064l-.066.017c-.109.032-.216.07-.322.112l-.076.034c-.079.034-.158.07-.236.109-.035.018-.07.038-.1.057q-.1.055-.2.118c-.035.022-.071.045-.1.068-.067.046-.133.094-.2.145-.029.023-.059.045-.088.068-.091.076-.18.155-.266.24a3.8,3.8,0,0,0,0,5.372,10.189,10.189,0,0,1,.765.856,10.009,10.009,0,0,1,2.116,7.411A9.96,9.96,0,0,1,2808.239-220.055Zm5.112-7.149c0-.212-.007-.423-.018-.634,0-.058-.009-.115-.013-.172-.011-.158-.022-.316-.039-.473-.009-.079-.019-.157-.029-.235-.017-.136-.035-.272-.056-.407q-.021-.126-.044-.251c-.024-.129-.049-.258-.076-.386-.018-.084-.037-.168-.056-.251-.031-.129-.064-.256-.1-.383-.022-.08-.044-.16-.067-.24-.04-.136-.084-.27-.128-.4-.023-.069-.044-.139-.069-.207-.062-.176-.129-.351-.2-.524-.01-.025-.019-.049-.028-.074q-.123-.3-.262-.586c-.028-.058-.058-.114-.086-.172-.067-.134-.135-.268-.206-.4-.039-.071-.079-.14-.12-.21l-.031-.055a3.77,3.77,0,0,0,1.886-1.023,3.8,3.8,0,0,0,.653-4.5l4.5-4.5a10.081,10.081,0,0,1-.725,13.432A9.953,9.953,0,0,1,2813.351-227.2Z" transform="translate(-2082.899 3714.201)" fill="#fff"/>
  </g>
</svg>
