<svg xmlns="http://www.w3.org/2000/svg" xmlns:xlink="http://www.w3.org/1999/xlink" width="304" height="79.367" viewBox="0 0 304 79.367">
  <defs>
    <linearGradient id="linear-gradient" x1="-0.026" y1="1.001" x2="-0.022" y2="1.001" gradientUnits="objectBoundingBox">
      <stop offset="0" stop-color="#5abcff"/>
      <stop offset="0.994" stop-color="#99d5ff"/>
      <stop offset="1" stop-color="#99d5ff"/>
    </linearGradient>
    <clipPath id="clip-path">
      <rect id="Rectangle_3767" data-name="Rectangle 3767" width="75" height="78.364" fill="none"/>
    </clipPath>
    <clipPath id="clip-path-2">
      <path id="Path_7433" data-name="Path 7433" d="M28.713,27.905q-.8.334-1.572.706a35.9,35.9,0,0,0-8.887,6.048l-.2.19q-.994.936-1.915,1.946A35.695,35.695,0,0,0,6.8,60.858V60.9A35.783,35.783,0,0,0,32.681,95.3q.669.192,1.348.359.479.117.962.222.282.061.567.117A36.125,36.125,0,0,0,49.6,96q.285-.056.568-.117.356-.077.71-.161.584-.138,1.16-.3A35.779,35.779,0,0,0,78.363,60.9q0-.262,0-.522A35.8,35.8,0,0,0,28.713,27.905" transform="translate(-6.797 -25.119)" fill="none"/>
    </clipPath>
    <clipPath id="clip-path-4">
      <rect id="Rectangle_3763" data-name="Rectangle 3763" width="71.465" height="66.257" fill="none"/>
    </clipPath>
    <clipPath id="clip-path-5">
      <rect id="Rectangle_3764" data-name="Rectangle 3764" width="6.626" height="5.36" fill="none"/>
    </clipPath>
    <clipPath id="clip-path-6">
      <rect id="Rectangle_3765" data-name="Rectangle 3765" width="12.962" height="24.425" fill="none"/>
    </clipPath>
  </defs>
  <g id="Pemenang_5" data-name="Pemenang 5" transform="translate(-11284.5 19891.504)">
    <g id="Rectangle_4318" data-name="Rectangle 4318" transform="translate(11369.5 -19856)" fill="#fff" stroke="#99d5ff" stroke-width="3">
      <rect width="216" height="36" rx="16" stroke="none"/>
      <rect x="-1.5" y="-1.5" width="219" height="39" rx="17.5" fill="none"/>
    </g>
    <text id="Pemenang_Ke-5" data-name="Pemenang Ke-5" transform="translate(11477.5 -19833)" fill="#0b69fd" font-size="15" font-family="Montserrat-Bold, Montserrat" font-weight="700"><tspan x="-62.745" y="0">Pemenang Ke-5</tspan></text>
    <g id="Group_5608" data-name="Group 5608" transform="translate(1870 1)">
      <path id="Union_1" data-name="Union 1" d="M30.548,77.677h-.009c-.189-.038-.379-.077-.567-.118-.323-.069-.643-.144-.963-.221v0h0q-.679-.167-1.347-.359a35.524,35.524,0,0,1-5.176-1.934L22.558,75l-.023-.01A35.792,35.792,0,0,1,1.826,42.623l-.05-.086a13.523,13.523,0,0,1-.72-1.452,13.447,13.447,0,0,1,5.85-16.974l.029-.016.021-.034a35.86,35.86,0,0,1,4.162-5.585A2.657,2.657,0,0,1,10,16.823l-.853-4.029a2.658,2.658,0,0,1,2.6-3.209H23.625l.117-.049A35.917,35.917,0,0,1,50.1,8.99l.057,0h7.895a.653.653,0,0,1,.651.6h4.4a2.658,2.658,0,0,1,2.6,3.209l-.853,4.029a2.655,2.655,0,0,1-.9,1.491A35.933,35.933,0,0,1,68.4,24.3l.074.126A13.447,13.447,0,0,1,73.8,41.085c-.127.3-.263.592-.41.879,0,.015,0,.03,0,.045,0,.174,0,.347,0,.522h0q0,.083,0,.165c0,.012,0,.024,0,.036q0,.064,0,.128c0,.018,0,.037,0,.056q0,.054,0,.108c0,.021,0,.041,0,.062s0,.068,0,.1,0,.046,0,.068,0,.063,0,.094,0,.048,0,.073,0,.06,0,.091,0,.05,0,.075,0,.059,0,.088l0,.077c0,.028,0,.055,0,.083l0,.085,0,.075,0,.088,0,.071,0,.1,0,.057q0,.054-.005.107l0,.045c0,.04,0,.082-.007.122v.021a35.8,35.8,0,0,1-20.8,30.456l-.074.034.025.015A35.458,35.458,0,0,1,47.02,77.1q-.576.158-1.16.3h0v0q-.354.084-.711.161c-.188.04-.378.08-.567.118h-.009a36.146,36.146,0,0,1-14.024,0ZM69.9,10.764a1.021,1.021,0,0,1,.841-1.174l3.074-.539a1.021,1.021,0,0,1,.334,2.015l-3.074.538a.974.974,0,0,1-.168.014A1.022,1.022,0,0,1,69.9,10.764ZM66.34,6.076a1.021,1.021,0,0,1-.267-1.419L68.628.9a1.021,1.021,0,1,1,1.688,1.15L67.759,5.808a1.022,1.022,0,0,1-1.419.268ZM59.7,3.866l-.5-2.625A1.021,1.021,0,1,1,61.187.8l.5,2.625a1.021,1.021,0,1,1-1.994.439Z" transform="translate(9415 -19892)" stroke="rgba(0,0,0,0)" stroke-miterlimit="10" stroke-width="1" fill="url(#linear-gradient)"/>
      <g id="Cup_thropy_referral_ranking_title" data-name="Cup thropy referral ranking title" transform="translate(9415 -19892)">
        <g id="Group_4951" data-name="Group 4951" clip-path="url(#clip-path)">
          <g id="Group_4939" data-name="Group 4939" transform="translate(1.826 6.749)">
            <g id="Group_4938" data-name="Group 4938" clip-path="url(#clip-path-2)">
              <rect id="Rectangle_3762" data-name="Rectangle 3762" width="71.566" height="71.566" transform="translate(0 0)" fill="url(#linear-gradient)"/>
            </g>
          </g>
          <g id="Group_4950" data-name="Group 4950">
            <g id="Group_4949" data-name="Group 4949" clip-path="url(#clip-path)">
              <g id="Group_4942" data-name="Group 4942" transform="translate(1.928 12.058)" opacity="0.16">
                <g id="Group_4941" data-name="Group 4941">
                  <g id="Group_4940" data-name="Group 4940" clip-path="url(#clip-path-4)">
                    <path id="Path_7434" data-name="Path 7434" d="M74.844,59.3q-.536-.286-1.1-.525a13.342,13.342,0,0,0-5.1-1.056l.16-3.491h.537a2.655,2.655,0,0,0,1.838-.738q-.944-1.222-1.988-2.357a35.942,35.942,0,0,0-7.574-6.251H24.093q-1.021.63-2,1.325a35.9,35.9,0,0,0-3.566,2.906l-.2.19q-.776.731-1.507,1.507l.278,1.31a2.659,2.659,0,0,0,2.6,2.107h.537l.06,1.3.1,2.188a13.342,13.342,0,0,0-5.1,1.056,13.57,13.57,0,0,0-1.3.633,13.488,13.488,0,0,0-5.39,5.54,35.661,35.661,0,0,0-1.435,7.692,13.317,13.317,0,0,0,.976,3.743A13.473,13.473,0,0,0,15.3,83.528a13.348,13.348,0,0,0,5.23,1.057H23.1A23.337,23.337,0,0,0,39.267,98.121l-.081.369-.1.452-1.8,8.257h-.816a2.827,2.827,0,0,0-2.825,2.709h-.118q.387.1.778.2.479.117.962.222.283.062.567.118a36.138,36.138,0,0,0,14.042,0q.285-.056.568-.118.357-.077.71-.161.584-.138,1.161-.3,1.462-.4,2.872-.918a2.827,2.827,0,0,0-2.617-1.756h-.816l-1.416-6.5-.563-2.581A23.337,23.337,0,0,0,65.944,84.585h2.572a13.4,13.4,0,0,0,9.5-3.935c.094-.094.187-.19.278-.287a36.1,36.1,0,0,0,.348-5.009q0-.262,0-.522A35.612,35.612,0,0,0,74.844,59.3M20.529,79.55a8.4,8.4,0,0,1,0-16.8h.1l.615,13.421A23.418,23.418,0,0,0,21.6,79.55Zm47.986,0H67.449a23.422,23.422,0,0,0,.354-3.377l.615-13.421h.1a8.4,8.4,0,1,1,0,16.8" transform="translate(-7.176 -44.88)"/>
                  </g>
                </g>
              </g>
              <path id="Path_7435" data-name="Path 7435" d="M124.823,239.668q-.354.084-.71.161-.283.061-.568.118H109.5q-.285-.056-.568-.118-.484-.1-.962-.222l.594-2.723.591-2.709,1.8-8.257.179-.821.7-3.213h9.11l.7,3.213.563,2.581,1.416,6.5.591,2.709Z" transform="translate(-78.964 -162.271)" fill="#ffd31d"/>
              <path id="Path_7436" data-name="Path 7436" d="M129.07,221.883h-9.11l-.879,4.034a23.221,23.221,0,0,0,9.125,1.856q1.075,0,2.127-.1Z" transform="translate(-87.088 -162.271)" fill="#ffab2e"/>
              <path id="Path_7437" data-name="Path 7437" d="M120.576,270.458a2.828,2.828,0,0,1-1.285,2.37q-.577.158-1.161.3-.353.084-.71.161H102.242q-.484-.1-.962-.222-.679-.167-1.348-.359a2.821,2.821,0,0,1-1.111-2.247c0-.039,0-.079,0-.118a2.828,2.828,0,0,1,2.825-2.71h16.1a2.827,2.827,0,0,1,2.825,2.71c0,.039,0,.078,0,.118" transform="translate(-72.271 -195.728)" fill="#ffbf1f"/>
              <path id="Path_7438" data-name="Path 7438" d="M113.7,278.214a35.525,35.525,0,0,1-5.469,1.989q-.577.158-1.161.3-.354.084-.71.161-.283.061-.568.118a36.136,36.136,0,0,1-14.042,0q-.285-.056-.568-.118-.484-.1-.962-.222-.679-.166-1.348-.359a35.439,35.439,0,0,1-5.175-1.934,3.52,3.52,0,0,1,1.69-.431h26.5a3.527,3.527,0,0,1,1.809.5" transform="translate(-61.208 -203.103)" fill="#594a43"/>
              <path id="Path_7439" data-name="Path 7439" d="M73.8,91.656a13.425,13.425,0,0,0-12.244-8.2H13.3a13.345,13.345,0,0,0-5.1,1.056,13.6,13.6,0,0,0-1.3.633,13.434,13.434,0,0,0,6.528,25.179H61.421a13.449,13.449,0,0,0,11.919-7.23q.248-.476.459-.974a13.47,13.47,0,0,0,0-10.459M61.421,105.285H13.434a8.4,8.4,0,0,1,0-16.8H61.421a8.4,8.4,0,1,1,0,16.8" transform="translate(0 -61.031)" fill="#ffbf1f"/>
              <path id="Path_7440" data-name="Path 7440" d="M56.192,88.487h46.155a8.4,8.4,0,0,1,1.657.164l.232-5.068a13.519,13.519,0,0,0-1.755-.131H55.961Z" transform="translate(-40.926 -61.031)" fill="#ffab2e"/>
              <path id="Path_7441" data-name="Path 7441" d="M106.248,164.595c-.243.021-.489.033-.738.033H60.286a23.151,23.151,0,0,0,1.432,5.035h43.093a23.146,23.146,0,0,0,1.437-5.068" transform="translate(-44.089 -120.374)" fill="#ffab2e"/>
              <path id="Path_7442" data-name="Path 7442" d="M45.36,88.556a8.451,8.451,0,0,1,1.078-.069H93.264l.231-5.035H46.3q-.592.006-1.176.062Z" transform="translate(-33.004 -61.031)" fill="#ffab2e"/>
              <path id="Path_7443" data-name="Path 7443" d="M94.124,169.742a23.177,23.177,0,0,0,1.2-5.035H49.337c-.082,0-.164,0-.245,0a23.157,23.157,0,0,0,1.2,5.039Z" transform="translate(-35.903 -120.453)" fill="#ffab2e"/>
              <path id="Path_7444" data-name="Path 7444" d="M72.874,107.9h0A23.293,23.293,0,0,1,49.593,85.351L48.469,60.813H97.28L96.155,85.351A23.293,23.293,0,0,1,72.874,107.9" transform="translate(-35.447 -44.475)" fill="#ffd31d"/>
              <path id="Path_7445" data-name="Path 7445" d="M96.938,68.259l.341-7.446H48.468l.179,3.9Z" transform="translate(-35.446 -44.475)" fill="#ffab2e"/>
              <path id="Path_7446" data-name="Path 7446" d="M87,45.02H37.35a2.659,2.659,0,0,1-2.6-2.107L33.9,38.883a2.658,2.658,0,0,1,2.6-3.209H87.85a2.658,2.658,0,0,1,2.6,3.209L89.6,42.912A2.659,2.659,0,0,1,87,45.02" transform="translate(-24.746 -26.09)" fill="#ffbf1f"/>
              <path id="Path_7447" data-name="Path 7447" d="M71.4,43.032H44.184a.986.986,0,1,1,0-1.972H71.4a.986.986,0,1,1,0,1.972" transform="translate(-31.592 -30.029)" fill="#fff"/>
              <path id="Path_7448" data-name="Path 7448" d="M160.682,42.4a1.022,1.022,0,0,0-1.445-1.445,1.022,1.022,0,0,0,1.445,1.445" transform="translate(-116.263 -29.76)" fill="#fff"/>
              <path id="Path_7449" data-name="Path 7449" d="M221.757,4.667a1.022,1.022,0,0,1-1-.8l-.5-2.625A1.021,1.021,0,1,1,222.251.8l.5,2.625a1.022,1.022,0,0,1-1,1.241" transform="translate(-161.063 0)" fill="#ffd31d"/>
              <path id="Path_7450" data-name="Path 7450" d="M246.287,7.484a1.021,1.021,0,0,1-.842-1.6L248,2.128a1.021,1.021,0,1,1,1.687,1.15l-2.556,3.759a1.021,1.021,0,0,1-.844.446" transform="translate(-179.372 -1.23)" fill="#ffbf1f"/>
              <path id="Path_7451" data-name="Path 7451" d="M261.132,36.217a1.021,1.021,0,0,1-.166-2.028l3.075-.539a1.021,1.021,0,1,1,.334,2.015L261.3,36.2a1.024,1.024,0,0,1-.168.014" transform="translate(-190.228 -24.599)" fill="#ffd31d"/>
              <g id="Group_4945" data-name="Group 4945" transform="translate(15.936 23.234)" opacity="0.8">
                <g id="Group_4944" data-name="Group 4944">
                  <g id="Group_4943" data-name="Group 4943" clip-path="url(#clip-path-5)">
                    <path id="Path_7452" data-name="Path 7452" d="M65.305,91.84c.267-3.236.636-5.36.636-5.36l-6.4.1q-.193,2.777-.228,5.261Z" transform="translate(-59.315 -86.48)" fill="#ffef42"/>
                  </g>
                </g>
              </g>
              <g id="Group_4948" data-name="Group 4948" transform="translate(15.998 33.24)" opacity="0.8">
                <g id="Group_4947" data-name="Group 4947">
                  <g id="Group_4946" data-name="Group 4946" clip-path="url(#clip-path-6)">
                    <path id="Path_7453" data-name="Path 7453" d="M65.225,123.723h-5.68c1.037,23.487,12.962,24.425,12.962,24.425-6.4-5.194-7.476-16.238-7.282-24.425" transform="translate(-59.545 -123.723)" fill="#ffef42"/>
                  </g>
                </g>
              </g>
              <path id="Path_7455" data-name="Path 7455" d="M192.473,52.653l-3.141-3.3a.578.578,0,0,0-.833,0l-3.24,3.332a.578.578,0,0,1-.992-.4V34.1a.653.653,0,0,1,.653-.653h7.9a.653.653,0,0,1,.653.653V52.255a.578.578,0,0,1-1,.4" transform="translate(-134.761 -24.463)" fill="#0b69fd"/>
              <path id="Path_7456" data-name="Path 7456" d="M193.443,37.755h-6.068a.775.775,0,1,1,0-1.55h6.068a.775.775,0,1,1,0,1.55" transform="translate(-136.467 -26.478)" fill="#fff"/>
              <path id="Path_7457" data-name="Path 7457" d="M3.5,102.291l-.048,0a.478.478,0,0,1-.428-.524,9.854,9.854,0,0,1,1.233-3.852,12.293,12.293,0,0,1,2.119-2.737,13.513,13.513,0,0,1,2.9-2.2.478.478,0,0,1,.442.848,12.807,12.807,0,0,0-2.7,2.053,9.7,9.7,0,0,0-3.05,5.981.478.478,0,0,1-.475.43" transform="translate(-2.209 -67.959)" fill="#fff083"/>
              <path id="Path_7458" data-name="Path 7458" d="M234.092,152.031a.478.478,0,0,1-.043-.955,9.121,9.121,0,0,0,2.82-.863,7.555,7.555,0,0,0,3.992-4.486.478.478,0,0,1,.906.306,8.594,8.594,0,0,1-4.511,5.055,9.886,9.886,0,0,1-3.122.941l-.044,0" transform="translate(-170.85 -106.337)" fill="#fff083"/>
              <path id="Path_7459" data-name="Path 7459" d="M73.353,95.361A4.119,4.119,0,0,0,71.119,97.6a.19.19,0,0,1-.349,0,4.119,4.119,0,0,0-2.235-2.234.19.19,0,0,1,0-.349,4.119,4.119,0,0,0,2.235-2.234.189.189,0,0,1,.349,0,4.119,4.119,0,0,0,2.235,2.234.19.19,0,0,1,0,.349" transform="translate(-50.037 -67.766)" fill="#fff"/>
              <path id="Path_7460" data-name="Path 7460" d="M207.032,171.469A4.119,4.119,0,0,0,204.8,173.7a.19.19,0,0,1-.349,0,4.119,4.119,0,0,0-2.235-2.235.19.19,0,0,1,0-.349,4.12,4.12,0,0,0,2.235-2.235.189.189,0,0,1,.349,0,4.119,4.119,0,0,0,2.234,2.235.19.19,0,0,1,0,.349" transform="translate(-147.801 -123.426)" fill="#fff"/>
              <path id="Path_7461" data-name="Path 7461" d="M52.705,70.288a7.25,7.25,0,0,0-3.932,3.932.334.334,0,0,1-.615,0,7.249,7.249,0,0,0-3.932-3.932.333.333,0,0,1,0-.614,7.247,7.247,0,0,0,3.932-3.932.334.334,0,0,1,.615,0,7.248,7.248,0,0,0,3.932,3.932.333.333,0,0,1,0,.614" transform="translate(-32.196 -47.93)" fill="#fff"/>
              <path id="Path_7462" data-name="Path 7462" d="M185.28,209.736a7.25,7.25,0,0,0-3.932,3.932.334.334,0,0,1-.615,0,7.249,7.249,0,0,0-3.932-3.932.333.333,0,0,1,0-.615,7.248,7.248,0,0,0,3.932-3.932.334.334,0,0,1,.615,0,7.249,7.249,0,0,0,3.932,3.932.333.333,0,0,1,0,.615" transform="translate(-129.152 -149.913)" fill="#fff"/>
              <text id="_5" data-name="5" transform="translate(37.116 44.818)" fill="#fff" font-size="21" font-family="RobotoSlab-Bold, Roboto Slab" font-weight="700"><tspan x="-5.599" y="0">5</tspan></text>
            </g>
          </g>
        </g>
      </g>
    </g>
  </g>
</svg>
