<svg id="Rank_5" data-name="Rank 5" xmlns="http://www.w3.org/2000/svg" xmlns:xlink="http://www.w3.org/1999/xlink" width="30" height="34.638" viewBox="0 0 30 34.638">
  <defs>
    <clipPath id="clip-path">
      <rect id="Rectangle_3833" data-name="Rectangle 3833" width="30" height="34.638" fill="none"/>
    </clipPath>
    <clipPath id="clip-path-2">
      <rect id="Rectangle_3832" data-name="Rectangle 3832" width="30" height="34.638" transform="translate(0 0)" fill="none"/>
    </clipPath>
    <clipPath id="clip-path-3">
      <rect id="Rectangle_3831" data-name="Rectangle 3831" width="15.332" height="15.269" transform="translate(8.704 17.104)" fill="none"/>
    </clipPath>
  </defs>
  <g id="Group_5028" data-name="Group 5028" clip-path="url(#clip-path)">
    <g id="Group_5027" data-name="Group 5027">
      <g id="Group_5026" data-name="Group 5026" clip-path="url(#clip-path-2)">
        <path id="Path_7625" data-name="Path 7625" d="M30,15A15,15,0,1,0,15,30,15,15,0,0,0,30,15" fill="#f0f5fd"/>
        <path id="Path_7626" data-name="Path 7626" d="M27.4,23.438a11.086,11.086,0,0,0-6.213-9.321,1.972,1.972,0,0,0-.408-2.429l3.577-8.41a14.911,14.911,0,0,0-2.443-1.591A14.926,14.926,0,0,0,17.3.571l-.2.475-.82,1.929L14.972,0a14.939,14.939,0,0,0-7,1.747l3.868,10a1.971,1.971,0,0,0-.344,2.368A11.1,11.1,0,0,0,5.561,26.659,15,15,0,0,0,27.4,23.438" fill="#cdd7fc"/>
        <path id="Path_7627" data-name="Path 7627" d="M23.336,2.528,19.265,12.1l-.063.146H10.993l.062-.146,4.1-9.649,1.022-2.4a14.92,14.92,0,0,1,7.154,2.482" fill="#f3516f"/>
        <path id="Path_7628" data-name="Path 7628" d="M15.979.521,11.054,12.1l.062.146H19.2l.074-.174Z" fill="#cc4662"/>
        <path id="Path_7629" data-name="Path 7629" d="M19.326,12.244h-8.21l-.062-.146L6.913,2.364A14.923,14.923,0,0,1,14.128.025l1.031,2.424,4.1,9.649Z" fill="#f3516f"/>
        <path id="Path_7630" data-name="Path 7630" d="M18.612,14.6H11.83A1.707,1.707,0,0,1,10.123,12.9v-.528a1.707,1.707,0,0,1,1.707-1.707h6.782a1.707,1.707,0,0,1,1.707,1.707V12.9A1.707,1.707,0,0,1,18.612,14.6" fill="#ffd31d"/>
        <path id="Path_7631" data-name="Path 7631" d="M18.434,11.744H12.088a.374.374,0,0,1,0-.747h6.346a.374.374,0,0,1,0,.747" fill="#fff"/>
        <path id="Path_7632" data-name="Path 7632" d="M26.3,23.558A11.081,11.081,0,1,0,15.221,34.639,11.081,11.081,0,0,0,26.3,23.558" fill="#ffbf1f"/>
        <path id="Path_7633" data-name="Path 7633" d="M5.091,24.1a.364.364,0,0,1-.364-.355,10.356,10.356,0,0,1,.591-3.767l0,0a10.27,10.27,0,0,1,2.638-4.005.332.332,0,0,1,.047-.037c.022-.015.056-.037.069-.048a5.484,5.484,0,0,1,.745-.622c.088-.065.179-.132.267-.2l.017-.012c.26-.178.549-.369.9-.562l.013-.007c.061-.03.122-.064.187-.1a3.989,3.989,0,0,1,.4-.2.364.364,0,1,1,.28.673,3.469,3.469,0,0,0-.328.165c-.066.036-.133.073-.2.109a9.647,9.647,0,0,0-.825.515c-.091.071-.183.138-.271.2a4.823,4.823,0,0,0-.656.544l-.007.007a.946.946,0,0,1-.154.122,9.446,9.446,0,0,0-2.979,7.2A.365.365,0,0,1,5.1,24.1h-.01" fill="#fff"/>
        <path id="Path_7634" data-name="Path 7634" d="M24.036,23.558a8.815,8.815,0,1,0-8.815,8.815,8.815,8.815,0,0,0,8.815-8.815" fill="#ffd31d"/>
        <g id="Group_5025" data-name="Group 5025" opacity="0.5">
          <g id="Group_5024" data-name="Group 5024">
            <g id="Group_5023" data-name="Group 5023" clip-path="url(#clip-path-3)">
              <path id="Path_7635" data-name="Path 7635" d="M21.226,17.1A8.815,8.815,0,0,1,8.7,29.493,8.815,8.815,0,1,0,21.226,17.1" fill="#ffefab"/>
            </g>
          </g>
        </g>
        <path id="Path_7636" data-name="Path 7636" d="M7,24.427A8.815,8.815,0,0,1,22.8,19.057,8.816,8.816,0,1,0,8.23,28.928,8.775,8.775,0,0,1,7,24.427" fill="#ffab2e"/>
        <path id="Path_7637" data-name="Path 7637" d="M5.576,25.552a.342.342,0,1,0-.341.341.341.341,0,0,0,.341-.341" fill="#fff"/>
        <path id="Path_7638" data-name="Path 7638" d="M26.066,13.541A3.236,3.236,0,0,0,24.31,15.3a.149.149,0,0,1-.275,0,3.236,3.236,0,0,0-1.756-1.756.149.149,0,0,1,0-.275,3.236,3.236,0,0,0,1.756-1.756.15.15,0,0,1,.275,0,3.236,3.236,0,0,0,1.756,1.756.15.15,0,0,1,0,.275" fill="#fff"/>
        <path id="Path_7639" data-name="Path 7639" d="M23.991,17.985a1.728,1.728,0,0,0-.937.937.08.08,0,0,1-.146,0,1.728,1.728,0,0,0-.937-.937.079.079,0,0,1,0-.146,1.731,1.731,0,0,0,.937-.937.079.079,0,0,1,.146,0,1.731,1.731,0,0,0,.937.937.079.079,0,0,1,0,.146" fill="#fff"/>
        <path id="Path_7640" data-name="Path 7640" d="M8.673,12.469a1.725,1.725,0,0,0-.937.937.08.08,0,0,1-.146,0,1.725,1.725,0,0,0-.937-.937.079.079,0,0,1,0-.146,1.731,1.731,0,0,0,.937-.937.079.079,0,0,1,.146,0,1.731,1.731,0,0,0,.937.937.079.079,0,0,1,0,.146" fill="#fff"/>
        <path id="Path_7641" data-name="Path 7641" d="M6.578,8.75A3.039,3.039,0,0,0,4.93,10.4a.14.14,0,0,1-.258,0A3.039,3.039,0,0,0,3.024,8.75a.14.14,0,0,1,0-.258A3.039,3.039,0,0,0,4.672,6.844a.14.14,0,0,1,.258,0A3.039,3.039,0,0,0,6.578,8.492a.14.14,0,0,1,0,.258" fill="#fff"/>
        <path id="Path_7642" data-name="Path 7642" d="M9.076,29.058A1.725,1.725,0,0,0,8.139,30a.08.08,0,0,1-.146,0,1.725,1.725,0,0,0-.937-.937.079.079,0,0,1,0-.146,1.731,1.731,0,0,0,.937-.937.079.079,0,0,1,.146,0,1.731,1.731,0,0,0,.937.937.079.079,0,0,1,0,.146" fill="#fff"/>
        <text id="_5" data-name="5" transform="translate(10.851 29.168)" fill="#fff" font-size="15.167" font-family="RobotoSlab-Bold, Roboto Slab" font-weight="700"><tspan x="0" y="0">5</tspan></text>
      </g>
    </g>
  </g>
</svg>
