<svg id="Rank_3" data-name="Rank 3" xmlns="http://www.w3.org/2000/svg" xmlns:xlink="http://www.w3.org/1999/xlink" width="30" height="34.638" viewBox="0 0 30 34.638">
  <defs>
    <clipPath id="clip-path">
      <rect id="Rectangle_3827" data-name="Rectangle 3827" width="30" height="34.638" fill="none"/>
    </clipPath>
    <clipPath id="clip-path-2">
      <rect id="Rectangle_3826" data-name="Rectangle 3826" width="30" height="34.638" transform="translate(0 0)" fill="none"/>
    </clipPath>
    <clipPath id="clip-path-3">
      <rect id="Rectangle_3825" data-name="Rectangle 3825" width="15.332" height="15.269" transform="translate(8.704 17.104)" fill="none"/>
    </clipPath>
  </defs>
  <g id="Group_5014" data-name="Group 5014" clip-path="url(#clip-path)">
    <g id="Group_5013" data-name="Group 5013">
      <g id="Group_5012" data-name="Group 5012" clip-path="url(#clip-path-2)">
        <path id="Path_7589" data-name="Path 7589" d="M30,15A15,15,0,1,0,15,30,15,15,0,0,0,30,15" fill="#f0f5fd"/>
        <path id="Path_7590" data-name="Path 7590" d="M27.4,23.438a11.086,11.086,0,0,0-6.213-9.321,1.972,1.972,0,0,0-.408-2.429l3.577-8.41a14.911,14.911,0,0,0-2.443-1.591A14.926,14.926,0,0,0,17.3.571l-.2.475-.82,1.929L14.972,0a14.939,14.939,0,0,0-7,1.747l3.868,10a1.971,1.971,0,0,0-.344,2.368A11.1,11.1,0,0,0,5.561,26.659,15,15,0,0,0,27.4,23.438" fill="#cdd7fc"/>
        <path id="Path_7591" data-name="Path 7591" d="M23.336,2.528,19.265,12.1l-.063.146H10.993l.062-.146,4.1-9.649,1.022-2.4a14.92,14.92,0,0,1,7.154,2.482" fill="#f3516f"/>
        <path id="Path_7592" data-name="Path 7592" d="M15.979.521,11.054,12.1l.062.146H19.2l.074-.174Z" fill="#cc4662"/>
        <path id="Path_7593" data-name="Path 7593" d="M19.326,12.244h-8.21l-.062-.146L6.913,2.364A14.923,14.923,0,0,1,14.128.025l1.031,2.424,4.1,9.649Z" fill="#f3516f"/>
        <path id="Path_7594" data-name="Path 7594" d="M18.612,14.6H11.83A1.707,1.707,0,0,1,10.123,12.9v-.528a1.707,1.707,0,0,1,1.707-1.707h6.782a1.707,1.707,0,0,1,1.707,1.707V12.9A1.707,1.707,0,0,1,18.612,14.6" fill="#ffd31d"/>
        <path id="Path_7595" data-name="Path 7595" d="M18.434,11.744H12.088a.374.374,0,0,1,0-.747h6.346a.374.374,0,0,1,0,.747" fill="#fff"/>
        <path id="Path_7596" data-name="Path 7596" d="M26.3,23.558A11.081,11.081,0,1,0,15.221,34.639,11.081,11.081,0,0,0,26.3,23.558" fill="#ffbf1f"/>
        <path id="Path_7597" data-name="Path 7597" d="M5.091,24.1a.364.364,0,0,1-.364-.355,10.356,10.356,0,0,1,.591-3.767l0,0a10.27,10.27,0,0,1,2.638-4.005.332.332,0,0,1,.047-.037c.022-.015.056-.037.069-.048a5.484,5.484,0,0,1,.745-.622c.088-.065.179-.132.267-.2l.017-.012c.26-.178.549-.369.9-.562l.013-.007c.061-.03.122-.064.187-.1a3.989,3.989,0,0,1,.4-.2.364.364,0,1,1,.28.673,3.469,3.469,0,0,0-.328.165c-.066.036-.133.073-.2.109a9.647,9.647,0,0,0-.825.515c-.091.071-.183.138-.271.2a4.823,4.823,0,0,0-.656.544l-.007.007a.946.946,0,0,1-.154.122,9.446,9.446,0,0,0-2.979,7.2A.365.365,0,0,1,5.1,24.1h-.01" fill="#fff"/>
        <path id="Path_7598" data-name="Path 7598" d="M24.036,23.558a8.815,8.815,0,1,0-8.815,8.815,8.815,8.815,0,0,0,8.815-8.815" fill="#ffd31d"/>
        <g id="Group_5011" data-name="Group 5011" opacity="0.5">
          <g id="Group_5010" data-name="Group 5010">
            <g id="Group_5009" data-name="Group 5009" clip-path="url(#clip-path-3)">
              <path id="Path_7599" data-name="Path 7599" d="M21.226,17.1A8.815,8.815,0,0,1,8.7,29.493,8.815,8.815,0,1,0,21.226,17.1" fill="#ffefab"/>
            </g>
          </g>
        </g>
        <path id="Path_7600" data-name="Path 7600" d="M7,24.427A8.815,8.815,0,0,1,22.8,19.057,8.816,8.816,0,1,0,8.23,28.928,8.775,8.775,0,0,1,7,24.427" fill="#ffab2e"/>
        <path id="Path_7601" data-name="Path 7601" d="M5.576,25.552a.342.342,0,1,0-.341.341.341.341,0,0,0,.341-.341" fill="#fff"/>
        <path id="Path_7602" data-name="Path 7602" d="M26.066,13.541A3.236,3.236,0,0,0,24.31,15.3a.149.149,0,0,1-.275,0,3.236,3.236,0,0,0-1.756-1.756.149.149,0,0,1,0-.275,3.236,3.236,0,0,0,1.756-1.756.15.15,0,0,1,.275,0,3.236,3.236,0,0,0,1.756,1.756.15.15,0,0,1,0,.275" fill="#fff"/>
        <path id="Path_7603" data-name="Path 7603" d="M23.991,17.985a1.728,1.728,0,0,0-.937.937.08.08,0,0,1-.146,0,1.728,1.728,0,0,0-.937-.937.079.079,0,0,1,0-.146,1.731,1.731,0,0,0,.937-.937.079.079,0,0,1,.146,0,1.731,1.731,0,0,0,.937.937.079.079,0,0,1,0,.146" fill="#fff"/>
        <path id="Path_7604" data-name="Path 7604" d="M8.673,12.469a1.725,1.725,0,0,0-.937.937.08.08,0,0,1-.146,0,1.725,1.725,0,0,0-.937-.937.079.079,0,0,1,0-.146,1.731,1.731,0,0,0,.937-.937.079.079,0,0,1,.146,0,1.731,1.731,0,0,0,.937.937.079.079,0,0,1,0,.146" fill="#fff"/>
        <path id="Path_7605" data-name="Path 7605" d="M6.578,8.75A3.039,3.039,0,0,0,4.93,10.4a.14.14,0,0,1-.258,0A3.039,3.039,0,0,0,3.024,8.75a.14.14,0,0,1,0-.258A3.039,3.039,0,0,0,4.672,6.844a.14.14,0,0,1,.258,0A3.039,3.039,0,0,0,6.578,8.492a.14.14,0,0,1,0,.258" fill="#fff"/>
        <path id="Path_7606" data-name="Path 7606" d="M9.076,29.058A1.725,1.725,0,0,0,8.139,30a.08.08,0,0,1-.146,0,1.725,1.725,0,0,0-.937-.937.079.079,0,0,1,0-.146,1.731,1.731,0,0,0,.937-.937.079.079,0,0,1,.146,0,1.731,1.731,0,0,0,.937.937.079.079,0,0,1,0,.146" fill="#fff"/>
        <text id="_3" data-name="3" transform="translate(11.139 29.168)" fill="#fff" font-size="15.167" font-family="RobotoSlab-Bold, Roboto Slab" font-weight="700"><tspan x="0" y="0">3</tspan></text>
      </g>
    </g>
  </g>
</svg>
