<svg id="Layer_1" data-name="Layer 1" xmlns="http://www.w3.org/2000/svg" viewBox="0 0 33.2 33.2"><defs><style>.cls-1{fill:#e01e26;}.cls-2{fill:#fff;}</style></defs><g id="Ellipse_359" data-name="Ellipse 359"><circle class="cls-1" cx="16.6" cy="16.6" r="16.6"/></g><path class="cls-2" d="M12.3,22.1a.9.9,0,0,1-.8-.4,1.1,1.1,0,0,1,0-1.7L20,11.5a1.2,1.2,0,1,1,1.7,1.7l-8.5,8.5A1.2,1.2,0,0,1,12.3,22.1Z"/><path class="cls-2" d="M20.9,22.1a1.2,1.2,0,0,1-.9-.4l-8.5-8.5a1.2,1.2,0,0,1,1.7-1.7L21.7,20a1.1,1.1,0,0,1,0,1.7A.9.9,0,0,1,20.9,22.1Z"/></svg>