<svg xmlns="http://www.w3.org/2000/svg" width="26.264" height="26.259" viewBox="0 0 26.264 26.259"><defs><style>.a{fill:#9c9ca8;}</style></defs><path class="a" d="M13.13,8.635a6.732,6.732,0,1,0,6.732,6.732A6.722,6.722,0,0,0,13.13,8.635Zm0,11.109a4.377,4.377,0,1,1,4.377-4.377A4.385,4.385,0,0,1,13.13,19.744ZM21.708,8.359a1.57,1.57,0,1,1-1.57-1.57A1.567,1.567,0,0,1,21.708,8.359Zm4.459,1.594a7.771,7.771,0,0,0-2.121-5.5,7.822,7.822,0,0,0-5.5-2.121c-2.168-.123-8.666-.123-10.834,0a7.811,7.811,0,0,0-5.5,2.115,7.8,7.8,0,0,0-2.121,5.5c-.123,2.168-.123,8.666,0,10.834a7.771,7.771,0,0,0,2.121,5.5A7.832,7.832,0,0,0,7.71,28.4c2.168.123,8.666.123,10.834,0a7.771,7.771,0,0,0,5.5-2.121,7.822,7.822,0,0,0,2.121-5.5c.123-2.168.123-8.66,0-10.828Zm-2.8,13.154a4.431,4.431,0,0,1-2.5,2.5c-1.729.686-5.83.527-7.74.527s-6.018.152-7.74-.527a4.431,4.431,0,0,1-2.5-2.5c-.686-1.729-.527-5.83-.527-7.74s-.152-6.018.527-7.74a4.431,4.431,0,0,1,2.5-2.5c1.729-.686,5.83-.527,7.74-.527s6.018-.152,7.74.527a4.431,4.431,0,0,1,2.5,2.5c.686,1.729.527,5.83.527,7.74S24.052,21.385,23.366,23.107Z" transform="translate(0.005 -2.238)"/></svg>