<svg id="blibli" xmlns="http://www.w3.org/2000/svg" xmlns:xlink="http://www.w3.org/1999/xlink" width="150" height="50" viewBox="0 0 150 50">
  <defs>
    <clipPath id="clip-path">
      <rect id="Rectangle_4055" data-name="Rectangle 4055" width="150" height="50" fill="none"/>
    </clipPath>
  </defs>
  <g id="Group_5212" data-name="Group 5212" clip-path="url(#clip-path)">
    <path id="Path_7699" data-name="Path 7699" d="M27.71,21.448l18.1-1a1.022,1.022,0,0,1,1.1,1.1,45.217,45.217,0,0,0,.343,19.063c.132.589-.494,1.1-1.1,1.1H27.161a1.016,1.016,0,0,1-.865-1.291c1.443-5.025,1.82-10.674.481-17.9a.911.911,0,0,1,.933-1.07" fill="#ccd2ea" fill-rule="evenodd"/>
    <path id="Path_7700" data-name="Path 7700" d="M32.116,24.083a.8.8,0,1,1-.8.8.8.8,0,0,1,.8-.8m8.2,3.52a.766.766,0,1,1,1.531-.012v.06h0a5.3,5.3,0,0,1-10.6,0h0v-.026a.766.766,0,1,1,1.531,0v.026h0a3.761,3.761,0,0,0,7.521,0h0v-.02h0Zm.677-3.52a.8.8,0,1,1-.8.8.8.8,0,0,1,.8-.8" fill="#fff" fill-rule="evenodd"/>
    <path id="Path_7701" data-name="Path 7701" d="M35.152,20.233l-.823-6.917.384-.4a.539.539,0,0,0,.055.1c.274-.136.984-.537,1.477-.818a.892.892,0,0,0,1.329-.031l1.718.372.471.3s.675,5.757.851,7.325l-5.42.3Zm.644-9.349-.589-1a.653.653,0,0,1,.4-.048c.144.062.316.151.4.11a6.729,6.729,0,0,1,.549-.425.7.7,0,0,1,.178-.048,2.057,2.057,0,0,1,.529.233c.1.1.157.151.26.11a3.661,3.661,0,0,1,.515-.3,1,1,0,0,1,.192-.007l-.318,1.219-.389.221a.891.891,0,0,0-1.286.025Z" fill="#b2bbdb" fill-rule="evenodd"/>
    <path id="Path_7702" data-name="Path 7702" d="M34.48,10.6a5.433,5.433,0,0,0,.288,2.415c.274-.136.984-.537,1.477-.818a.892.892,0,0,0,1.329-.031l1.737.376a5.418,5.418,0,0,0-.288-2.415c-.277.138-1,.547-1.5.829a.892.892,0,0,0-1.287.025Z" fill="#99a3c5" fill-rule="evenodd"/>
    <path id="Path_7703" data-name="Path 7703" d="M38.79,14.8l2.414.541.081.018-.081-.018-1.087,4.848-3.09.171,1.161-5.179a.506.506,0,0,1,.6-.381m5.482,1.229,2.228.5a.5.5,0,0,1,.382.6l-.61,2.718-3.089.171.891-3.975q.1,0,.2-.015" fill="#ccd2ea" fill-rule="evenodd"/>
    <path id="Path_7704" data-name="Path 7704" d="M41.2,15.341l.081.018c-.41-.305-1.466-1-1.211-1.586a.953.953,0,0,1,1.6-.21,2.851,2.851,0,0,1,.759,1.675.819.819,0,0,1,.526.017l.268.132s1.133-1.446,1.9-1.159.979.89.761,1.152a2.742,2.742,0,0,1-1.808.664l-.891,3.975-3.065.17Zm.637-.3s-.251-.98-.6-1.149-.556-.1-.655.1.563.66,1.251,1.05m3.339-.221a.5.5,0,0,0-.567.034,6.663,6.663,0,0,0-.807.643s.217.011.4,0a2.828,2.828,0,0,0,1.128-.332c.093-.152-.153-.35-.153-.35" fill="#b2bbdb" fill-rule="evenodd"/>
    <path id="Path_7705" data-name="Path 7705" d="M27.134,17.715l2.882-.7.1-.023-.1.023L30.9,20.7l-3.622.2-.593-2.456a.6.6,0,0,1,.445-.728m6.545-1.58,2.66-.642a.606.606,0,0,1,.729.445L38.121,20.3l-3.623.2-1.024-4.244c.071-.039.139-.08.205-.121" fill="#ccd2ea" fill-rule="evenodd"/>
    <path id="Path_7706" data-name="Path 7706" d="M30.015,17.019l.1-.024c-.6-.111-2.109-.3-2.142-1.065a1.141,1.141,0,0,1,1.6-1.07,3.393,3.393,0,0,1,1.7,1.4A.988.988,0,0,1,31.854,16h.357s.453-2.155,1.428-2.251,1.523.439,1.427.837a3.285,3.285,0,0,1-1.593,1.67L34.5,20.5l-3.6.2Zm.529-.656s-.789-.92-1.249-.92-.652.185-.652.453.954.412,1.9.467m3.472-2c-.151-.027-.371.014-.59.336a7.946,7.946,0,0,0-.529,1.119s.241-.1.433-.206,1.015-.741,1.036-.954-.35-.3-.35-.3" fill="#b2bbdb" fill-rule="evenodd"/>
    <path id="Path_7707" data-name="Path 7707" d="M60.1,21.851a9.926,9.926,0,1,1-9.926,9.926V16.387a6.7,6.7,0,0,1,4.66-2.377V30.9c0,4.134,1.615,7.622,4.8,7.622,3.726,0,5.918-3.02,5.918-6.746a6.752,6.752,0,0,0-8.676-6.465,8.936,8.936,0,0,1,2.466-3.433q.375-.028.757-.028m38.205,0a9.926,9.926,0,1,1-9.927,9.926V16.387a6.7,6.7,0,0,1,4.66-2.377V30.9c0,4.134,1.615,7.622,4.8,7.622,3.725,0,5.917-3.02,5.917-6.746a6.751,6.751,0,0,0-8.675-6.465,8.928,8.928,0,0,1,2.465-3.433q.375-.028.758-.028m20.77,2.335a6.707,6.707,0,0,1,4.661-2.377V39.326a6.7,6.7,0,0,1-4.661,2.378Zm2.33-10.03a2.335,2.335,0,1,1-2.335,2.335,2.335,2.335,0,0,1,2.335-2.335m-10.087-3.483a6.7,6.7,0,0,1,4.66-2.377v31.03a6.7,6.7,0,0,1-4.66,2.378ZM80.869,24.186a6.7,6.7,0,0,1,4.66-2.377V39.326a6.7,6.7,0,0,1-4.66,2.378Zm2.33-10.03a2.335,2.335,0,1,1-2.336,2.335A2.334,2.334,0,0,1,83.2,14.156M73.111,10.673A6.7,6.7,0,0,1,77.771,8.3v31.03a6.7,6.7,0,0,1-4.66,2.378Z" fill="#f7f6f8" fill-rule="evenodd"/>
  </g>
</svg>
