<svg id="bukalapak" xmlns="http://www.w3.org/2000/svg" xmlns:xlink="http://www.w3.org/1999/xlink" width="150" height="50" viewBox="0 0 150 50">
  <defs>
    <clipPath id="clip-path">
      <rect id="Rectangle_4063" data-name="Rectangle 4063" width="150" height="50" fill="none"/>
    </clipPath>
  </defs>
  <g id="Group_5231" data-name="Group 5231" clip-path="url(#clip-path)">
    <path id="Path_7722" data-name="Path 7722" d="M112.343,32.149c2.5,2.125,6.252,1.025,7.609-2.147,1.415-3.309.963-7.76-2.577-9.492-2.357-1.153-8.656-.389-8.746.44V36.817h3.714Zm0-3.1V23.534a3.763,3.763,0,0,1,3.925.315c1.244,1.114,1.088,3.729.185,5.025a2.741,2.741,0,0,1-4.11.174" fill="#f7f6f8" fill-rule="evenodd"/>
    <path id="Path_7723" data-name="Path 7723" d="M33.026,32.962c7.474.87,10.543.016,11.575-3.712,1.2-4.326-1.222-11.129-8.1-7.992V17.037H33.026Zm3.473-8.8a3.181,3.181,0,0,1,5.067,2.776c-.125,3.789-4.886,3.4-5.067,2.775Z" fill="#f7f6f8" fill-rule="evenodd"/>
    <path id="Path_7724" data-name="Path 7724" d="M68.684,26.772l4.68-6.215H69.508l-3.649,5.057a.248.248,0,0,1-.449-.146l0-8.429H61.781l0,16.319h3.628V28.539a.25.25,0,0,1,.45-.148l3.714,4.969h4.008l-4.89-6.282a.248.248,0,0,1-.005-.306" fill="#f7f6f8" fill-rule="evenodd"/>
    <path id="Path_7725" data-name="Path 7725" d="M81.872,26.906l-.01,2.424c0,.547-1.343,1.422-2.862.985-2.151-.621-1.514-4.048,2.872-3.409m4.082,6.06.419-2.17c-.7-.22-1.283-.551-1.257-1.4.134-4.465.8-6.732-1.531-8.322-1.375-.938-3.716-1.186-8.257-.188l.736,2.48c1.188-.139,5.993-1.359,5.951,1.23-2.246-.065-4.633.014-6.562,1.438a4.208,4.208,0,0,0,.2,6.618,5.342,5.342,0,0,0,6.321-.818,3.465,3.465,0,0,0,3.981,1.135" fill="#f7f6f8" fill-rule="evenodd"/>
    <path id="Path_7726" data-name="Path 7726" d="M59.641,30.734c-.864-.157-1.1-.419-1.1-1.318l0-8.857H55.086V28.7c0,1.03-1.063,1.593-2.031,1.609a2.263,2.263,0,0,1-2.445-2.126V20.561H47.194v8.626c.174,3.2,3.36,5.722,8.08,2.855,1.151,1.283,2.6,1.214,3.957,1.015Z" fill="#f7f6f8" fill-rule="evenodd"/>
    <rect id="Rectangle_4062" data-name="Rectangle 4062" width="3.564" height="16.307" transform="translate(88.485 17.007)" fill="#f7f6f8"/>
    <path id="Path_7727" data-name="Path 7727" d="M102.076,26.906l-.01,2.424c0,.547-1.343,1.422-2.862.985-2.151-.621-1.514-4.048,2.872-3.409m4.082,6.06.419-2.17c-.7-.22-1.283-.551-1.257-1.4.134-4.465.8-6.732-1.531-8.322-1.375-.938-3.716-1.186-8.257-.188l.736,2.48c1.188-.139,5.993-1.359,5.951,1.23-2.246-.065-4.633.014-6.562,1.438a4.208,4.208,0,0,0,.2,6.618,5.342,5.342,0,0,0,6.321-.818,3.465,3.465,0,0,0,3.981,1.135" fill="#f7f6f8" fill-rule="evenodd"/>
    <path id="Path_7728" data-name="Path 7728" d="M129.87,26.906l-.01,2.424c0,.547-1.343,1.422-2.862.985-2.153-.621-1.517-4.048,2.872-3.409m4.082,6.06.419-2.17c-.7-.22-1.283-.551-1.257-1.4.134-4.465.8-6.732-1.531-8.322-1.375-.938-3.716-1.186-8.257-.188l.736,2.48c1.188-.139,5.993-1.359,5.951,1.23-2.246-.065-4.633.014-6.562,1.438a4.208,4.208,0,0,0,.2,6.618,5.342,5.342,0,0,0,6.321-.818,3.465,3.465,0,0,0,3.981,1.135" fill="#f7f6f8" fill-rule="evenodd"/>
    <path id="Path_7729" data-name="Path 7729" d="M143.347,26.772l4.68-6.215h-3.856l-3.649,5.057a.248.248,0,0,1-.449-.146l0-8.429h-3.626l0,16.319h3.628V28.539a.25.25,0,0,1,.45-.148l3.714,4.969h4.008l-4.89-6.282a.251.251,0,0,1-.005-.306" fill="#f7f6f8" fill-rule="evenodd"/>
    <path id="Path_7730" data-name="Path 7730" d="M3.015,14.508l3.71-1.227a1.829,1.829,0,0,1,2.359,1.338l2.589,11.62a1.818,1.818,0,0,1-1.185,2.123l-1.513.524A1.822,1.822,0,0,1,6.7,27.892L1.917,16.976a1.829,1.829,0,0,1,1.1-2.468" fill="#ccd2ea" fill-rule="evenodd"/>
    <path id="Path_7731" data-name="Path 7731" d="M10.158,30.766A3.08,3.08,0,1,1,8.39,34.747a3.08,3.08,0,0,1,1.768-3.981" fill="#ccd2ea" fill-rule="evenodd"/>
    <path id="Path_7732" data-name="Path 7732" d="M17.629,28.576c-.049.028-.5.218-.968.4a1.634,1.634,0,0,0-.88,2.123l.665,1.684a1.6,1.6,0,0,0,2.181.894,8.219,8.219,0,0,0,5.666-8.529,8.437,8.437,0,0,0-7.062-7.692,10.049,10.049,0,0,0-3.654.1,1.444,1.444,0,0,0-.866.413.918.918,0,0,0-.123.764l.868,3.246a.865.865,0,0,0,1.028.633,5.6,5.6,0,0,1,1.776-.146,3.245,3.245,0,0,1,2.946,2.989,2.97,2.97,0,0,1-1.577,3.117" fill="#ccd2ea" fill-rule="evenodd"/>
  </g>
</svg>
