<svg id="lazada" xmlns="http://www.w3.org/2000/svg" xmlns:xlink="http://www.w3.org/1999/xlink" width="150" height="50" viewBox="0 0 150 50">
  <defs>
    <clipPath id="clip-path">
      <rect id="Rectangle_4053" data-name="Rectangle 4053" width="150" height="50" fill="#f7f6f8"/>
    </clipPath>
    <clipPath id="clip-path-2">
      <rect id="Rectangle_4049" data-name="Rectangle 4049" width="150" height="50" fill="none"/>
    </clipPath>
    <clipPath id="clip-path-3">
      <path id="Path_7691" data-name="Path 7691" d="M5.52,17.618V32.906a1.557,1.557,0,0,0,.9,1.259C7.075,34.5,24.449,45.4,26.8,46.755a1.8,1.8,0,0,0,.9.234h.09V29L5.691,16.872a1.636,1.636,0,0,0-.171.746" fill="#ccd2ea"/>
    </clipPath>
    <linearGradient id="linear-gradient" x1="2.217" y1="-1.124" x2="0.075" y2="0.874" gradientUnits="objectBoundingBox">
      <stop offset="0" stop-color="#f7f6f8"/>
      <stop offset="1" stop-color="#b2bbdb"/>
    </linearGradient>
  </defs>
  <g id="Group_5208" data-name="Group 5208" clip-path="url(#clip-path)">
    <path id="Path_15988" data-name="Path 15988" d="M14.7,10.984c-.9.5-6.59,3.973-8.29,5.027l-.127.072a1.67,1.67,0,0,0-.754,1.437V32.972a1.589,1.589,0,0,0,.908,1.273C7.1,34.581,24.673,45.6,27.045,46.971a1.812,1.812,0,0,0,1.818-.019C31.281,45.607,48.8,34.59,49.46,34.227a1.573,1.573,0,0,0,.909-1.273V17.5a1.634,1.634,0,0,0-.791-1.419c-.3-.19-7.353-4.508-8.389-5.081a1.354,1.354,0,0,0-.682-.191,1.207,1.207,0,0,0-.636.173c-.082,0-7.69,4.827-8.88,5.454a6.111,6.111,0,0,1-3.055.745,6.285,6.285,0,0,1-2.727-.572c-1.218-.464-9.18-5.654-9.18-5.654a1.426,1.426,0,0,0-.645-.164,1.371,1.371,0,0,0-.682.191" fill="#dadeef"/>
    <path id="Path_7683" data-name="Path 7683" d="M62.313,15.887h3.148V31.033h5.426v2.989H62.326Z" fill="#f7f6f8"/>
    <g id="Group_5201" data-name="Group 5201">
      <g id="Group_5200" data-name="Group 5200" clip-path="url(#clip-path-2)">
        <path id="Path_7684" data-name="Path 7684" d="M78.176,20.431a5.333,5.333,0,0,1,4.274,2.054V20.7h2.937V34.048H82.45V32.264a5.333,5.333,0,0,1-4.274,2.054,6.652,6.652,0,0,1-6.44-6.947,6.645,6.645,0,0,1,6.44-6.94M78.71,23.1a3.974,3.974,0,0,0-3.951,4.267,3.963,3.963,0,1,0,7.9,0A3.971,3.971,0,0,0,78.71,23.1" fill="#f7f6f8"/>
        <path id="Path_7685" data-name="Path 7685" d="M87.672,31.73l7-8.363h-6.9V20.7H98.465v2.351l-6.974,8.33h7.132v2.667H87.672Z" fill="#f7f6f8"/>
        <path id="Path_7686" data-name="Path 7686" d="M106.09,20.431a5.333,5.333,0,0,1,4.273,2.054V20.7H113.3V34.048h-2.937V32.264a5.333,5.333,0,0,1-4.273,2.054,6.647,6.647,0,0,1-6.434-6.947,6.641,6.641,0,0,1,6.434-6.94m.533,2.673a3.974,3.974,0,0,0-3.951,4.267,3.963,3.963,0,1,0,7.9,0,3.971,3.971,0,0,0-3.951-4.267" fill="#f7f6f8"/>
        <path id="Path_7687" data-name="Path 7687" d="M121.69,20.431a5.313,5.313,0,0,1,4.267,2.054V14.814h2.937V34.048h-2.937V32.264a5.313,5.313,0,0,1-4.267,2.054,6.652,6.652,0,0,1-6.44-6.947,6.645,6.645,0,0,1,6.44-6.94m.533,2.673a3.974,3.974,0,0,0-3.951,4.267,3.963,3.963,0,1,0,7.9,0,3.971,3.971,0,0,0-3.951-4.267" fill="#f7f6f8"/>
        <path id="Path_7688" data-name="Path 7688" d="M137.283,20.431a5.315,5.315,0,0,1,4.268,2.054V20.7h2.93V34.048h-2.943V32.264a5.316,5.316,0,0,1-4.268,2.054,6.652,6.652,0,0,1-6.44-6.947,6.656,6.656,0,0,1,6.453-6.94m.534,2.673a3.974,3.974,0,0,0-3.951,4.267,3.963,3.963,0,1,0,7.9,0,3.971,3.971,0,0,0-3.951-4.267" fill="#f7f6f8"/>
      </g>
    </g>
    <g id="Group_5207" data-name="Group 5207">
      <g id="Group_5206" data-name="Group 5206" clip-path="url(#clip-path-3)">
        <rect id="Rectangle_4052" data-name="Rectangle 4052" width="37.425" height="36.237" transform="translate(-9.197 35.138) rotate(-51.147)" fill="#ccd2ea"/>
      </g>
    </g>
    <path id="Path_15989" data-name="Path 15989" d="M27.863,29.027V47.206h.091a1.818,1.818,0,0,0,.909-.235C31.235,45.6,48.8,34.581,49.46,34.245a1.572,1.572,0,0,0,.909-1.273V17.52a1.641,1.641,0,0,0-.172-.754Z" fill="url(#linear-gradient)"/>
  </g>
</svg>
