<svg id="shopee" xmlns="http://www.w3.org/2000/svg" xmlns:xlink="http://www.w3.org/1999/xlink" width="150" height="50" viewBox="0 0 150 50">
  <defs>
    <clipPath id="clip-path">
      <rect id="Rectangle_4054" data-name="Rectangle 4054" width="150" height="50" fill="none"/>
    </clipPath>
  </defs>
  <g id="Group_5210" data-name="Group 5210" clip-path="url(#clip-path)">
    <path id="Path_7692" data-name="Path 7692" d="M67.782,30.8a11.83,11.83,0,0,0-4.7-2.493c-.171-.052-.344-.093-.513-.142s-.332-.105-.5-.162c-.126-.044-.249-.092-.373-.141-.017-.006-.068-.029-.109-.045-.074-.03-.147-.065-.219-.1a7.172,7.172,0,0,1-1.87-1.2,2.3,2.3,0,0,1-.841-1.716,3.247,3.247,0,0,1,.916-2.4,3.89,3.89,0,0,1,2.186-.9A7.542,7.542,0,0,1,66.679,22.7c1.277.868,2.47-1.2,1.2-2.061a9.9,9.9,0,0,0-6.878-1.419A5.393,5.393,0,0,0,56.272,24.8c-.085,3.565,3.749,5.014,6.541,5.918a8.157,8.157,0,0,1,1.618.668,6.922,6.922,0,0,1,1.833,1.259,5.77,5.77,0,0,1,.4.431c.089.111.1.122.027.036.07.095.132.192.195.292a2.43,2.43,0,0,1,.4,1.038c0,.027.01.05.011.07a3.461,3.461,0,0,1,.017.368,3.273,3.273,0,0,1-.043.623,3.017,3.017,0,0,1-.5,1.253c-.785,1.223-2.59,1.725-4.034,1.694a9.861,9.861,0,0,1-5.772-2.275,1.2,1.2,0,0,0-1.633.427,1.217,1.217,0,0,0,.428,1.632,11.808,11.808,0,0,0,7.435,2.6,6.791,6.791,0,0,0,5.9-3.339,5.6,5.6,0,0,0-1.312-6.7" fill="#f7f6f8" fill-rule="evenodd"/>
    <path id="Path_7693" data-name="Path 7693" d="M81.227,28.267a6.39,6.39,0,0,0-7.316.63c-.008.006-.015.014-.023.021v-8.64a1.194,1.194,0,0,0-2.386,0V39.717a1.194,1.194,0,0,0,2.386,0v-6.4l.006-.019c.028-.1.062-.2.094-.3s.079-.212.121-.32v0c.045-.1.094-.206.143-.3a7.336,7.336,0,0,1,.614-1.016c.01-.017.019-.028.026-.038s.032-.036.057-.069c.074-.087.148-.172.227-.257s.163-.164.246-.245c.027-.028.28-.239.249-.221a3.69,3.69,0,0,1,2.857-.692,3.876,3.876,0,0,1,1.389.437,2.446,2.446,0,0,1,.9.783c-.174-.214.125.21.17.288.035.06.16.331.17.343a4.286,4.286,0,0,1,.181.622v7.413a1.194,1.194,0,0,0,2.386,0V35.631a28.1,28.1,0,0,0-.048-3.74,5.27,5.27,0,0,0-2.446-3.624" fill="#f7f6f8" fill-rule="evenodd"/>
    <path id="Path_7694" data-name="Path 7694" d="M94.724,27.806a7.024,7.024,0,0,0-7.736,2.821,6.632,6.632,0,0,0,.663,8.044,7.048,7.048,0,0,0,8.11,1.566,6.713,6.713,0,0,0,3.87-6.016,1.338,1.338,0,0,0-.006-.142,6.834,6.834,0,0,0-4.9-6.273M92.771,38.522a4.305,4.305,0,1,1,4.473-4.3,4.424,4.424,0,0,1-4.473,4.3" fill="#f7f6f8" fill-rule="evenodd"/>
    <path id="Path_7695" data-name="Path 7695" d="M110.728,27.806a6.922,6.922,0,0,0-6.659,1.591v-.614a1.2,1.2,0,0,0-2.389,0V46.754a1.2,1.2,0,0,0,2.389,0V39.1a7.127,7.127,0,0,0,7.7,1.139,6.716,6.716,0,0,0,3.868-6.016c0-.048,0-.1-.005-.142a6.834,6.834,0,0,0-4.9-6.273m-1.954,10.716a4.305,4.305,0,1,1,4.473-4.3,4.423,4.423,0,0,1-4.473,4.3" fill="#f7f6f8" fill-rule="evenodd"/>
    <path id="Path_7696" data-name="Path 7696" d="M124.006,27.543a5.862,5.862,0,0,0-5.309,3.063,8,8,0,0,0-.877,2.925,1.279,1.279,0,0,0-.035.3,7.2,7.2,0,0,0,1.589,5.157c2.195,2.649,6.882,2.476,9.605.864a1.2,1.2,0,0,0-1.2-2.062,6.6,6.6,0,0,1-3.748.8,4.608,4.608,0,0,1-1-.128c-.169-.038-.336-.089-.5-.141-.068-.024-.137-.049-.2-.076l-.074-.033a2.774,2.774,0,0,1-1.219-.951c.119.141-.1-.145-.128-.187-.069-.1-.131-.214-.192-.326-.04-.073-.077-.148-.114-.225.018.033-.081-.194-.1-.238a6.105,6.105,0,0,1-.194-.656c-.026-.106-.047-.21-.066-.316-.01-.047-.03-.187-.041-.259l0-.026h8.683a1.211,1.211,0,0,0,1.194-1.195,7.062,7.062,0,0,0-.69-3.19,5.715,5.715,0,0,0-5.377-3.1m-3.435,4.665c.017-.042.051-.121.063-.145a5.3,5.3,0,0,1,.479-.829.407.407,0,0,0,.027-.038c.055-.066.111-.128.167-.192a4.587,4.587,0,0,1,.43-.406,3.456,3.456,0,0,0,.335-.21c.089-.053.179-.1.271-.144-.115.058.194-.077.2-.08a3.743,3.743,0,0,1,1.308-.232,4.105,4.105,0,0,1,2.416.584c.041.027.08.056.122.085-.061-.04.134.114.149.128a3.824,3.824,0,0,1,.375.4c-.047-.047.161.244.192.3a4.076,4.076,0,0,1,.21.405c-.017-.029.1.255.115.311.046.132.081.268.116.4.007.03.015.061.021.09h-7.141c.028-.094.06-.186.092-.279.017-.05.035-.1.054-.147" fill="#f7f6f8" fill-rule="evenodd"/>
    <path id="Path_7697" data-name="Path 7697" d="M143.97,30.639a5.715,5.715,0,0,0-5.377-3.095,5.857,5.857,0,0,0-5.31,3.065,7.954,7.954,0,0,0-.876,2.923,1.268,1.268,0,0,0-.035.3,7.2,7.2,0,0,0,1.588,5.155c2.2,2.647,6.884,2.474,9.606.865a1.2,1.2,0,0,0-1.206-2.062,6.591,6.591,0,0,1-3.748.8,4.535,4.535,0,0,1-.995-.129c-.172-.037-.338-.089-.5-.14l-.207-.074a.468.468,0,0,0-.071-.035,2.775,2.775,0,0,1-1.221-.952c.12.142-.1-.144-.126-.187a3.647,3.647,0,0,1-.192-.325c-.042-.073-.078-.148-.115-.225.018.033-.08-.194-.1-.238a5.8,5.8,0,0,1-.194-.656c-.025-.106-.047-.209-.066-.316-.009-.045-.03-.187-.041-.257l0-.028h8.684a1.214,1.214,0,0,0,1.195-1.194,7.055,7.055,0,0,0-.691-3.191m-8.812,1.572c.019-.044.05-.123.062-.147a5.33,5.33,0,0,1,.479-.829c.012-.016.02-.027.029-.037.054-.067.11-.13.166-.193a4.255,4.255,0,0,1,.431-.406,3.286,3.286,0,0,0,.333-.211c.09-.052.18-.1.273-.143-.116.058.193-.077.2-.08a3.7,3.7,0,0,1,1.308-.233,4.109,4.109,0,0,1,2.415.584l.122.085c-.061-.039.133.115.15.129a3.669,3.669,0,0,1,.372.4c-.045-.046.163.245.192.3a3.719,3.719,0,0,1,.214.405c-.018-.029.1.255.115.31.043.132.08.269.115.4.008.03.015.06.021.089h-7.141c.029-.093.059-.185.093-.278.015-.05.034-.1.053-.145" fill="#f7f6f8" fill-rule="evenodd"/>
    <path id="Path_7698" data-name="Path 7698" d="M42.209,14.137H33.237c-.016-3.848-2.1-12.012-8.433-12.045-6.985-.035-8.478,8.794-8.493,12.045H7.345c-2.419-.007-1.981,2.432-1.981,2.432L7.1,40.355s-.073,5.239,4.536,5.378c.3,0,25.756-.006,26.34,0,4.457-.285,4.52-5.392,4.52-5.392l1.739-23.785s.406-2.514-2.023-2.419M24.821,4.271c5.572.141,6.162,9.12,6.2,9.866H18.528c.02-.746.391-9.718,6.293-9.866m6.887,30.576c-.364,4.709-5.609,4.906-6.46,4.863A10.5,10.5,0,0,1,18.8,37.438a.679.679,0,0,1-.281-.548.668.668,0,0,1,.669-.667.657.657,0,0,1,.4.133h0l.021.016,0,0a9.742,9.742,0,0,0,5.67,1.946c2.287-.074,4.763-1.2,4.952-3.547.279-3.429-4.6-4.7-5.5-4.986s-5.823-1.586-5.61-5.653a5.383,5.383,0,0,1,5.635-4.7,8.506,8.506,0,0,1,5.478,1.6v0a.667.667,0,0,1-.446,1.166.655.655,0,0,1-.388-.124,9.63,9.63,0,0,0-4.607-1.324c-2.775.1-4.113,1.982-4.178,3.563,0,2.564,3.485,3.66,4.107,3.914,3.353,1.055,7.318,2.326,6.988,6.62" fill="#dadeef" fill-rule="evenodd"/>
  </g>
</svg>
